<!--
    Use this file as a reference for building the board
    See `go::print_svg` for actual implementation.
-->
<svg width="200" height="200" xmlns="http://www.w3.org/2000/svg">
<defs>
    <pattern id="grid" width="21" x="10" y="10" height="21" patternUnits="userSpaceOnUse">
        <path d="M 40 0 L 0 0 0 40" fill="none" stroke="gray" stroke-width="1"/>
    </pattern>
    <style>
        circle { stroke: #000; r: 10; }
        .b { fill: #000; }
        .w { fill: #fff; }
    </style>
</defs>
<rect width="200" x="10" y="10" height="200" fill="url(#grid)" />
<circle cy="73" cx="10" class="w" />
<circle cy="10" cx="31" class="b" />
<circle cy="31" cx="31" class="b" />
<circle cy="73" cx="31" class="w" />
<circle cy="94" cx="31" class="w" />
<circle cy="136" cx="31" class="w" />
<circle cy="31" cx="52" class="b" />
<circle cy="94" cx="52" class="w" />
<circle cy="31" cx="73" class="b" />
<circle cy="52" cx="73" class="b" />
<circle cy="94" cx="73" class="w" />
<circle cy="115" cx="73" class="w" />
<circle cy="52" cx="94" class="b" />
<circle cy="115" cx="94" class="w" />
<circle cy="52" cx="115" class="b" />
<circle cy="115" cx="115" class="w" />
<circle cy="136" cx="115" class="w" />
<circle cy="52" cx="136" class="b" />
<circle cy="73" cx="136" class="b" />
<circle cy="94" cx="136" class="b" />
<circle cy="115" cx="136" class="b" />
<circle cy="136" cx="136" class="w" />
<circle cy="52" cx="157" class="b" />
<circle cy="73" cx="157" class="w" />
<circle cy="94" cx="157" class="w" />
<circle cy="115" cx="157" class="w" />
<circle cy="136" cx="157" class="w" />
</svg>
