<svg xmlns="http://www.w3.org/2000/svg" viewPort="0 0 198 198">
    <defs>
        <circle id="b" r="10" fill="#000" />
        <circle id="w" r="10" fill="#fff" stroke="#000" />
        <pattern id="grid" width="21" x="10" y="10" height="21" patternUnits="userSpaceOnUse">
            <path d="M 40 0 L 0 0 0 40" fill="none" stroke="gray" stroke-width="0.8"/>
        </pattern>
    </defs>
    <rect width="100%" height="100%" fill="url(#grid)"/>

    <g href="#w">
    <use href="#w" y="52" x="31"/>
    <use href="#w" y="52" x="52"/>
    <use href="#w" y="73" x="73"/>
    <use href="#w" y="94" x="73"/>
    <use href="#w" y="115" x="73"/>
    <use href="#w" y="136" x="73"/>
    <use href="#w" y="52" x="94"/>
    <use href="#w" y="73" x="94"/>
    <use href="#w" y="115" x="94"/>
    <use href="#w" y="73" x="115"/>
    <use href="#w" y="94" x="115"/>
    <use href="#w" y="115" x="115"/>
    <use href="#w" y="136" x="115"/>
    <use href="#w" y="115" x="136"/>
    <use href="#w" y="157" x="136"/>
    <use href="#w" y="178" x="136"/>
    <use href="#w" y="94" x="157"/>
    <use href="#w" y="136" x="157"/>
    <use href="#w" y="73" x="178"/>
    <use href="#w" y="94" x="178"/>
    <use href="#w" y="115" x="178"/>
    </g>

    <use href="#b" y="157" x="31"/>
    <use href="#b" y="31" x="52"/>
    <use href="#b" y="73" x="52"/>
    <use href="#b" y="94" x="52"/>
    <use href="#b" y="115" x="52"/>
    <use href="#b" y="136" x="52"/>
    <use href="#b" y="31" x="73"/>
    <use href="#b" y="52" x="73"/>
    <use href="#b" y="157" x="73"/>
    <use href="#b" y="31" x="94"/>
    <use href="#b" y="157" x="94"/>
    <use href="#b" y="52" x="115"/>
    <use href="#b" y="31" x="136"/>
    <use href="#b" y="52" x="136"/>
    <use href="#b" y="73" x="136"/>
    <use href="#b" y="94" x="136"/>
    <use href="#b" y="31" x="157"/>
    <use href="#b" y="73" x="157"/>
    <use href="#b" y="10" x="178"/>
    <use href="#b" y="52" x="178"/>
</svg>
