<?xml version="1.0" encoding="UTF-8" standalone="no"?>
<!-- Created with Inkscape (http://www.inkscape.org/) -->
<svg
  width="300"
  height="300"
  viewBox="0 0 300 300"
  version="1.1"
  xml:space="preserve"
  xmlns:xlink="http://www.w3.org/1999/xlink"
  xmlns="http://www.w3.org/2000/svg"
  xmlns:svg="http://www.w3.org/2000/svg">
	<g>
		<path
       style="fill: none;stroke:#fff"
       d="m 156.5,103 v 32 l 2,3.4641 h 14 L 201.5,111 V 83 l -4,-1 -1,2 -15,-4 v -1 h -3 z"
       id="path1" />
		<path
       style="fill: none;stroke:#fff"
       d="M 179.5,90.544475 180.5,92 h 12 L 194.04509,90.454906 192.5,89 h -12 z"
       id="path2" />
		<path
       style="fill: none;stroke:#fff"
       d="m 150.5,87 h 10 l 4,-10 c 6.33333,-0.666667 10.66667,-2.666667 13,-6 -0.33333,-1.333333 0,-2.666667 1,-4 h -4 l -5,5 -9,1 -4,9 h -6 z"
       id="path6" />
		<path
       style="fill: none;stroke:#fff"
       d="m 184.5,77 11,3 2,-11 -8,-2 z"
       id="path7" />
		<path
       style="fill: none;stroke:#fff"
       d="m 189.5,71 -1.57812,3 6.29687,2 0.64844,-3.421875 z"
       id="path8" />
		<path
       style="fill: none;stroke:#fff"
       d="M 149.96491,160 H 158.5 l 13,-10 3,3 -15,11 -9.49209,-0.0625"
       id="path9" />
		<path
       style="fill: none;stroke:#fff"
       d="M 150.00791,151.03359 160.5,151 l 7,-8 h -12 l -3,-4 h -2.50195"
       id="path10" />
		<path
       style="fill: none;stroke:#fff"
       d="m 183.5,146 2.49177,-3.50823 L 203.5,156 l -2.55806,3.53033 z"
       id="path11" />
		<path
       style="fill: none;stroke:#fff"
       d="m 172.5,145 10,-10 29,22 -3,15 z"
       id="path12" />
		<path
       style="fill: none;stroke:#fff"
       d="m 186.5,132 7,-7 21,16 -2,11 z"
       id="path13" />
		<path
       style="fill: none;stroke:#fff"
       d="m 197.5,122 17,13 1,-5 -12,-14 z"
       id="path14" />
		<path
       style="fill: none;stroke:#fff"
       d="M 150.00791,46.492271 H 166.5 c 2.81688,-3.741943 9.69792,-3.01189 15,-4.019238 V 47 c -3.62742,0.435369 -8,0 -11,1 -0.94107,0.333333 -1.94107,1.333333 -3,3 l -17.49209,0.04427"
       id="path15" />
		<path
       style="fill: none;stroke:#fff"
       d="M 149.95312,188 H 157.5 l 32,-24 -3,-2 -12,9 v -9 c 0,-2 2.8402,-3.33333 5,-5 l -2,-2 -7,4 v 14 l -14,11 h -6.57813"
       id="path16" />
		<path
       style="fill: none;stroke:#fff"
       d="m 150.00791,205.98904 9.49209,0.011 c 2.04809,-2.90775 6.45181,-5.94976 11,-9 v -16 l 4,-3 v 16 l 24,-16 h 2 v -6 l 4,3 v 22 l -4,3 v -18 l -32,22 v 33 l -12,8 -6.49209,-0.0651"
       id="path17" />
		<path
       style="fill: none;stroke:#fff"
       d="m 171.5,204 3,-2 v 15 l -3,2 z"
       id="path18" />
		<path
       style="fill: none;stroke:#fff"
       d="m 172.5,223 34,-23 v 20 l -34,23 z"
       id="path19" />
		<path
       style="fill: none;stroke:#fff"
       d="m 216.5,159 c -0.22138,1.6273 -0.23602,3.1819 -1,5 2.33333,2.228 4,4.89466 5,8 1.11859,-0.66667 2.11859,-1.33333 3,-2 -0.99683,-4.03856 -4.3284,-7.42746 -7,-11 z"
       id="path20" />
		<path
       style="fill: none;stroke:#fff"
       d="m 217.5,176 2,4 37,-16 -2,-4 z"
       id="path21" />
		<path
       style="fill: none;stroke:#fff"
       d="m 221,184 1.5,4 35,-15 c -1.21624,-1.44507 0.0498,-3.28789 0.5,-5 z"
       id="path22" />
		<path
       style="fill: none;stroke:#fff"
       d="M 150.07041,250 H 155.5 l 13,-9 v 6 L 150,260"
       id="path23" />
		<path
       style="fill: none;stroke:#fff"
       d="m 181.5,68 6,-26 21,7 -5,25 -3,-3 1,-5 -14,-4 -3,7 z"
       id="path24" />
		<path
       style="fill: none;stroke:#fff"
       d="m 191.5,48 11,4 -1,5 -11,-4 z"
       id="path25" />
		<path
       style="fill: none;stroke:#fff"
       d="m 224.5,58 v 33 l 6,5 v 4 l 7,20 18,-8 -8,-31 z"
       id="path26" />
		<path
       style="fill: none;stroke:#fff"
       d="m 233.5,81 7,5 v 2 l 6,19 -4,2 z"
       id="path27" />
		<path
       style="fill: none;stroke:#fff"
       d="m 238.5,126 9,-5 5,18 -9,3 z"
       id="path28" />
		<path
       style="fill: none;stroke:#fff"
       d="m 224.5,122 6,-6 9,28 3,2 8,-3 4,12 -18,7 z"
       id="path29" />
		<path
       style="fill: none;stroke:#fff"
       d="m 150,91 h 12.5 l -6,6 H 150"
       id="path30" />
		<path
       style="fill: none;stroke:#fff"
       d="M 150.0625,227 H 157.5 l 5,-6 c -2.33295,-2.84633 -4.02954,1.02162 -6,2 h -6.625"
       id="path31" />
		<path
       style="fill: none;stroke:#fff"
       d="m 216.5,63 v 32 l 10,9 v -5 l -6,-5.485128 V 63 Z"
       id="path32" />
		<path
       style="fill: none;stroke:#fff"
       d="m 228.5,108 1,4 -13,12 -3,-3 z"
       id="path33" />
		<path
       style="fill: none;stroke:#fff"
       d="m 150,105 h 1.5 v 27 H 150"
       id="path34" />
		<path
       style="fill: none;stroke:#fff"
       d="m 156.5,103 v 32 l 2,3.4641 h 14 L 201.5,111 V 83 l -4,-1 -1,2 -15,-4 v -1 h -3 z"
       id="path35" />
		<path
       style="fill: none;stroke:#fff"
       d="M 179.5,90.544475 180.5,92 h 12 L 194.04509,90.454906 192.5,89 h -12 z"
       id="path36" />
		<path
       style="fill: none;stroke:#fff"
       d="m 150.5,87 h 10 l 4,-10 c 6.33333,-0.666667 10.66667,-2.666667 13,-6 -0.33333,-1.333333 0,-2.666667 1,-4 h -4 l -5,5 -9,1 -4,9 h -6 z"
       id="path37" />
		<path
       style="fill: none;stroke:#fff"
       d="m 184.5,77 11,3 2,-11 -8,-2 z"
       id="path38" />
		<path
       style="fill: none;stroke:#fff"
       d="m 189.5,71 -1.57812,3 6.29687,2 0.64844,-3.421875 z"
       id="path39" />
		<path
       style="fill: none;stroke:#fff"
       d="M 149.96491,160 H 158.5 l 13,-10 3,3 -15,11 -9.49209,-0.0625"
       id="path40" />
		<path
       style="fill: none;stroke:#fff"
       d="M 150.00791,151.03359 160.5,151 l 7,-8 h -12 l -3,-4 h -2.50195"
       id="path41" />
		<path
       style="fill: none;stroke:#fff"
       d="m 183.5,146 2.49177,-3.50823 L 203.5,156 l -2.55806,3.53033 z"
       id="path42" />
		<path
       style="fill: none;stroke:#fff"
       d="m 172.5,145 10,-10 29,22 -3,15 z"
       id="path43" />
		<path
       style="fill: none;stroke:#fff"
       d="m 186.5,132 7,-7 21,16 -2,11 z"
       id="path44" />
		<path
       style="fill: none;stroke:#fff"
       d="m 197.5,122 17,13 1,-5 -12,-14 z"
       id="path45" />
		<path
       style="fill: none;stroke:#fff"
       d="M 150.00791,46.492271 H 166.5 c 2.81688,-3.741943 9.69792,-3.01189 15,-4.019238 V 47 c -3.62742,0.435369 -8,0 -11,1 -0.94107,0.333333 -1.94107,1.333333 -3,3 l -17.49209,0.04427"
       id="path46" />
		<path
       style="fill: none;stroke:#fff"
       d="M 149.95312,188 H 157.5 l 32,-24 -3,-2 -12,9 v -9 c 0,-2 2.8402,-3.33333 5,-5 l -2,-2 -7,4 v 14 l -14,11 h -6.57813"
       id="path47" />
		<path
       style="fill: none;stroke:#fff"
       d="m 150.00791,205.98904 9.49209,0.011 c 2.04809,-2.90775 6.45181,-5.94976 11,-9 v -16 l 4,-3 v 16 l 24,-16 h 2 v -6 l 4,3 v 22 l -4,3 v -18 l -32,22 v 33 l -12,8 -6.49209,-0.0651"
       id="path48" />
		<path
       style="fill: none;stroke:#fff"
       d="m 171.5,204 3,-2 v 15 l -3,2 z"
       id="path49" />
		<path
       style="fill: none;stroke:#fff"
       d="m 172.5,223 34,-23 v 20 l -34,23 z"
       id="path50" />
		<path
       style="fill: none;stroke:#fff"
       d="m 216.5,159 c -0.22138,1.6273 -0.23602,3.1819 -1,5 2.33333,2.228 4,4.89466 5,8 1.11859,-0.66667 2.11859,-1.33333 3,-2 -0.99683,-4.03856 -4.3284,-7.42746 -7,-11 z"
       id="path51" />
		<path
       style="fill: none;stroke:#fff"
       d="m 217.5,176 2,4 37,-16 -2,-4 z"
       id="path52" />
		<path
       style="fill: none;stroke:#fff"
       d="m 221,184 1.5,4 35,-15 c -1.21624,-1.44507 0.0498,-3.28789 0.5,-5 z"
       id="path53" />
		<path
       style="fill: none;stroke:#fff"
       d="M 150.07041,250 H 155.5 l 13,-9 v 6 L 150,260"
       id="path54" />
		<path
       style="fill: none;stroke:#fff"
       d="m 181.5,68 6,-26 21,7 -5,25 -3,-3 1,-5 -14,-4 -3,7 z"
       id="path55" />
		<path
       style="fill: none;stroke:#fff"
       d="m 191.5,48 11,4 -1,5 -11,-4 z"
       id="path56" />
		<path
       style="fill: none;stroke:#fff"
       d="m 224.5,58 v 33 l 6,5 v 4 l 7,20 18,-8 -8,-31 z"
       id="path57" />
		<path
       style="fill: none;stroke:#fff"
       d="m 233.5,81 7,5 v 2 l 6,19 -4,2 z"
       id="path58" />
		<path
       style="fill: none;stroke:#fff"
       d="m 238.5,126 9,-5 5,18 -9,3 z"
       id="path59" />
		<path
       style="fill: none;stroke:#fff"
       d="m 224.5,122 6,-6 9,28 3,2 8,-3 4,12 -18,7 z"
       id="path60" />
		<path
       style="fill: none;stroke:#fff"
       d="m 150,91 h 12.5 l -6,6 H 150"
       id="path61" />
		<path
       style="fill: none;stroke:#fff"
       d="M 150.0625,227 H 157.5 l 5,-6 c -2.33295,-2.84633 -4.02954,1.02162 -6,2 h -6.625"
       id="path62" />
		<path
       style="fill: none;stroke:#fff"
       d="m 216.5,63 v 32 l 10,9 v -5 l -6,-5.485128 V 63 Z"
       id="path63" />
		<path
       style="fill: none;stroke:#fff"
       d="m 228.5,108 1,4 -13,12 -3,-3 z"
       id="path64" />
    <g transform="matrix(-1,0,0,1,300,0)">
			<use xlink:href="#path1" />
			<use xlink:href="#path2" />
			<use xlink:href="#path6" />
			<use xlink:href="#path7" />
			<use xlink:href="#path8" />
			<use xlink:href="#path9" />
			<use xlink:href="#path10" />
			<use xlink:href="#path11" />
			<use xlink:href="#path12" />
			<use xlink:href="#path13" />
			<use xlink:href="#path14" />
			<use xlink:href="#path15" />
			<use xlink:href="#path16" />
			<use xlink:href="#path17" />
			<use xlink:href="#path18" />
			<use xlink:href="#path19" />
			<use xlink:href="#path20" />
			<use xlink:href="#path21" />
			<use xlink:href="#path22" />
			<use xlink:href="#path23" />
			<use xlink:href="#path24" />
			<use xlink:href="#path25" />
			<use xlink:href="#path26" />
			<use xlink:href="#path27" />
			<use xlink:href="#path28" />
			<use xlink:href="#path29" />
			<use xlink:href="#path30" />
			<use xlink:href="#path31" />
			<use xlink:href="#path32" />
			<use xlink:href="#path33" />
			<use xlink:href="#path34" />
			<use xlink:href="#path35" />
			<use xlink:href="#path36" />
			<use xlink:href="#path37" />
			<use xlink:href="#path38" />
			<use xlink:href="#path39" />
			<use xlink:href="#path40" />
			<use xlink:href="#path41" />
			<use xlink:href="#path42" />
			<use xlink:href="#path43" />
			<use xlink:href="#path44" />
			<use xlink:href="#path45" />
			<use xlink:href="#path46" />
			<use xlink:href="#path47" />
			<use xlink:href="#path48" />
			<use xlink:href="#path49" />
			<use xlink:href="#path50" />
			<use xlink:href="#path51" />
			<use xlink:href="#path52" />
			<use xlink:href="#path53" />
			<use xlink:href="#path54" />
			<use xlink:href="#path55" />
			<use xlink:href="#path56" />
			<use xlink:href="#path57" />
			<use xlink:href="#path58" />
			<use xlink:href="#path59" />
			<use xlink:href="#path60" />
			<use xlink:href="#path61" />
			<use xlink:href="#path62" />
			<use xlink:href="#path63" />
			<use xlink:href="#path64" />
		</g>
	</g>
</svg>
