<?xml version="1.0" encoding="UTF-8" standalone="no"?>
<svg
   width="500"
   height="500"
   viewBox="0 0 500 500"
   version="1.1"
   xml:space="preserve"
   style="clip-rule:evenodd;fill-rule:evenodd;stroke-linecap:round;stroke-linejoin:round;stroke-miterlimit:1.5"
   id="svg27"
   xmlns="http://www.w3.org/2000/svg"
   xmlns:svg="http://www.w3.org/2000/svg"><defs
   id="defs27" />
    
    
    
    
    
    
    
    
    
    
    
    
    <path
   d="m 179.045,234.82981 c 1.097,32.91 13.901,26.652 27.476,42.49 7.419,8.655 10.607,21.41 11.11,23.422"
   style="fill:none;stroke:#ffffff;stroke-width:12.4px;stroke-opacity:1"
   id="path13" />
    <path
   d="m 326.034,236.78181 c -1.063,1.062 0.781,19.703 -13.063,30.779 -1.227,0.981 -20.999,8.443 -22.971,34.082"
   style="fill:none;stroke:#ffffff;stroke-width:12.4px;stroke-opacity:1"
   id="path14" />
    
    
    
    
    
    
    
    
    
    
    
    
    
<rect
   style="fill:#000000;fill-opacity:0;stroke:#ffffff;stroke-width:11.6;stroke-linecap:square;stroke-linejoin:miter;stroke-dasharray:none;stroke-opacity:1"
   id="rect27"
   width="62.253433"
   height="89.164139"
   x="222.37073"
   y="104.24377"
   ry="0" /><rect
   style="clip-rule:evenodd;fill:#000000;fill-opacity:0;fill-rule:evenodd;stroke:#ffffff;stroke-width:11.6;stroke-linecap:square;stroke-linejoin:miter;stroke-miterlimit:1.5;stroke-dasharray:none;stroke-opacity:1"
   id="rect27-7"
   width="62.238388"
   height="28.470947"
   x="222.33965"
   y="193.63831"
   ry="0" /><rect
   style="clip-rule:evenodd;fill:#000000;fill-opacity:0;fill-rule:evenodd;stroke:#ffffff;stroke-width:11.6;stroke-linecap:square;stroke-linejoin:miter;stroke-miterlimit:1.5;stroke-dasharray:none;stroke-opacity:1"
   id="rect27-7-5"
   width="52.338928"
   height="61.351456"
   x="227.53326"
   y="335.12323"
   ry="3.1819806"
   rx="1.4142135" /><path
   style="fill:#000000;fill-opacity:0;stroke:#ffffff;stroke-width:11.6;stroke-linecap:square;stroke-linejoin:miter;stroke-dasharray:none;stroke-opacity:1"
   d="m 295.02965,104.46485 c 18.08834,0.66659 35.98698,9.98842 36.06034,19.73451 m -8,-10.99999"
   id="path30" /><path
   style="clip-rule:evenodd;fill:#000000;fill-opacity:0;fill-rule:evenodd;stroke:#ffffff;stroke-width:11.6366;stroke-linecap:square;stroke-linejoin:miter;stroke-miterlimit:1.5;stroke-dasharray:none;stroke-opacity:1"
   d="m 211.32398,104.4401 c -18.2371,0.66532 -36.28294,9.96951 -36.3569,19.69715 m 8.06579,-10.97917"
   id="path30-8" /><path
   style="fill:#000000;fill-opacity:0;stroke:#ffffff;stroke-width:11.6;stroke-linecap:square;stroke-linejoin:miter;stroke-dasharray:none;stroke-opacity:1"
   d="m 330.19297,134.20436 c -4.82651,19.81167 -11.56478,43.80974 -14.12204,59.41766 -1.78901,10.91902 -1.40219,14.32733 -1.48617,25.97897 m 26,-33"
   id="path31" /><path
   style="clip-rule:evenodd;fill:#000000;fill-opacity:0;fill-rule:evenodd;stroke:#ffffff;stroke-width:12.0294;stroke-linecap:square;stroke-linejoin:miter;stroke-miterlimit:1.5;stroke-dasharray:none;stroke-opacity:1"
   d="m 176.27226,134.11216 c 5.20914,19.74074 12.4816,43.65288 15.2416,59.20492 1.93083,10.87992 1.51335,14.27603 1.60399,25.88595 m -28.06121,-32.88184"
   id="path31-2" /><path
   style="fill:#000000;fill-opacity:0;stroke:#ffffff;stroke-width:11.6;stroke-linecap:square;stroke-linejoin:miter;stroke-dasharray:none;stroke-opacity:1"
   d="m 172.28986,129.01056 c -9.90259,21.50741 -14.55247,32.29334 -27.31201,44.54773 l -0.0442,25.50003 c 11.79378,8.769 22.91592,14.19426 34.25006,19.87065 1.61736,0.81001 29.79322,2.92746 31.78228,2.95868"
   id="path32" /><path
   style="clip-rule:evenodd;fill:#000000;fill-opacity:0;fill-rule:evenodd;stroke:#ffffff;stroke-width:11.5133;stroke-linecap:square;stroke-linejoin:miter;stroke-miterlimit:1.5;stroke-dasharray:none;stroke-opacity:1"
   d="m 333.51792,128.95689 c 9.74525,21.52907 14.32124,32.32586 26.87804,44.59259 l 0.0435,25.52571 c -11.60638,8.77783 -22.5518,14.20856 -33.70585,19.89066 -1.59166,0.81083 -29.31982,3.06299 -31.27728,3.09424"
   id="path32-0" /><path
   style="fill:#000000;fill-opacity:0;stroke:#ffffff;stroke-width:11.6;stroke-linecap:square;stroke-linejoin:round;stroke-dasharray:none;stroke-opacity:1"
   d="m 222.39857,227.4375 9.0625,17.5 44.875,0.0625 7.5,-17.25"
   id="path33" /><path
   style="fill:#000000;fill-opacity:0;stroke:#ffffff;stroke-width:11.6;stroke-linecap:square;stroke-linejoin:round;stroke-dasharray:none;stroke-opacity:1"
   d="m 353.22309,229 c -0.0861,12.4592 0.16667,16.83334 0,25.625 6.86823,5.24563 15.96617,8.0962 17.25,17.375 l -6.53921,42.37695 c -33.97689,20.68159 -59.24247,55.19521 -83.625,80.5"
   id="path34" /><path
   style="clip-rule:evenodd;fill:#000000;fill-opacity:0;fill-rule:evenodd;stroke:#ffffff;stroke-width:11.6;stroke-linecap:square;stroke-linejoin:round;stroke-miterlimit:1.5;stroke-dasharray:none;stroke-opacity:1"
   d="m 154.56721,229.26114 c 0.0861,12.4592 -0.16667,16.83334 0,25.625 -6.86823,5.24563 -15.96617,8.0962 -17.25,17.375 l 6.53921,42.37695 c 33.97689,20.68159 59.24247,55.19521 83.625,80.5"
   id="path34-1" /><path
   style="fill:#000000;fill-opacity:0;stroke:#ffffff;stroke-width:11.6;stroke-linecap:square;stroke-linejoin:round;stroke-dasharray:none;stroke-opacity:1"
   d="m 153.90508,260.7092 c 21.10298,27.83394 38.83184,49.90232 72.50054,73.91476"
   id="path35" /><path
   style="clip-rule:evenodd;fill:#000000;fill-opacity:0;fill-rule:evenodd;stroke:#ffffff;stroke-width:11.6;stroke-linecap:square;stroke-linejoin:round;stroke-miterlimit:1.5;stroke-dasharray:none;stroke-opacity:1"
   d="m 155.6495,263.37593 c 21.10298,27.83394 38.83184,49.90232 72.50054,73.91476"
   id="path35-9" /><path
   style="clip-rule:evenodd;fill:#000000;fill-opacity:0;fill-rule:evenodd;stroke:#ffffff;stroke-width:11.6369;stroke-linecap:square;stroke-linejoin:round;stroke-miterlimit:1.5;stroke-dasharray:none;stroke-opacity:1"
   d="m 353.89968,258.73571 c -20.32552,27.81413 -37.44504,49.86683 -70.55282,73.8622"
   id="path35-9-3" /><path
   style="fill:#000000;fill-opacity:0;stroke:#ffffff;stroke-width:11.6;stroke-linecap:square;stroke-linejoin:round;stroke-dasharray:none;stroke-opacity:1"
   d="m 221.52217,326.20496 c 6.28954,-3.67886 9.92738,-10.5987 14.23052,-16.70539 l 34.59385,-0.1509 c 10.66109,15.45952 11.3974,15.21197 15.34557,17.91694"
   id="path36" /></svg>
