<?xml version="1.0" encoding="UTF-8" standalone="no"?>
<!-- Created with Inkscape (http://www.inkscape.org/) -->
<svg
  width="300"
  height="300"
  viewBox="0 0 300 300"
  version="1.1"
  xmlns:xlink="http://www.w3.org/1999/xlink"
  xmlns="http://www.w3.org/2000/svg"
  xmlns:svg="http://www.w3.org/2000/svg">
	<g>
		<path
       style="fill:none;stroke:#fff"
       d="m 150,59 c 9,0 15.57544,-3.295112 22,-7 l 2,3 c -6.58775,6.698033 -15,9 -24,9"
       id="path2" />
		<path
       style="fill:none;stroke:#fff"
       d="m 150,84 c 5,0 30,-9 28,-35 l 26,1 1,72 c 4,7.33333 9.33333,13.33333 16,18 l -4,23 c -17.32889,4.65556 -27.59259,-8.35185 -40,-16 l -14,16 h -13"
       id="path4" />
		<path
       style="fill:none;stroke:#fff"
       d="m 150,88 c 4,0 15.40948,-1.88162 25,-13 0,14 -9.95861,17.025665 -21,25 v 45 h -4"
       id="path5" />
		<path
       style="fill:none;stroke:#fff"
       d="m 182,54 v 14 h 18 V 55 Z"
       id="path6" />
		<path
       style="fill:none;stroke:#fff"
       d="m 200,72 h -21 c 0,14 -2,19 -20,30 v 37 c 2,0 4,0.1547 6,-1 l 3,-12 32,-21 z"
       id="path7" />
		<path
       style="fill:none;stroke:#fff"
       d="m 150,149 h 7 l 2,-6 h 9 l 5,-14 27,-18 v 12 c -18,12 -32,25 -39,36 h -11"
       id="path8" />
		<path
       style="fill:none;stroke:#fff"
       d="m 181,144 c 6.46686,-6.4944 13.24746,-12.68909 22,-17 3.83843,5.50341 6.94792,10.7483 13,14 -1.00309,6.3194 -2,14 -3,19 -8,3 -21.06448,-8.36537 -32,-16 z"
       id="path9" />
		<path
       style="fill:none;stroke:#fff"
       d="m 150,176 h 9 c 2,0 2,3 0,3 h -9"
       id="path10" />
		<path
       style="fill:none;stroke:#fff"
       d="m 150,190 h 13 c 12.39395,-21.6228 6,-12 29,-27 2,-1.1547 4,1.8453 2,3 -19,12 -18,7.55261 -28,29 h -16"
       id="path11" />
		<path
       style="fill:none;stroke:#fff"
       d="m 218,55 v 43 l 20,20 V 75 Z"
       id="path23" />
		<path
       style="fill:none;stroke:#fff"
       d="m 222,66 11,11 v 30 L 222,96 Z"
       id="path24" />
	</g>
	<g transform="matrix(-1,0,0,1,300,0)">
		<use xlink:href="#path2" />
		<use xlink:href="#path4" />
		<use xlink:href="#path5" />
		<use xlink:href="#path6" />
		<use xlink:href="#path7" />
		<use xlink:href="#path8" />
		<use xlink:href="#path9" />
		<use xlink:href="#path10" />
		<use xlink:href="#path11" />
		<use xlink:href="#path17" />
		<use xlink:href="#path22" />
		<use xlink:href="#path23" />
		<use xlink:href="#path24" />
	</g>
	<!-- </g> -->
</svg>
