<?xml version="1.0" encoding="UTF-8" standalone="no"?>
<!-- Created with Inkscape (http://www.inkscape.org/) -->
<svg
  width="300"
  height="300"
  viewBox="0 0 300 300"
  version="1.1"
  xmlns:xlink="http://www.w3.org/1999/xlink"
  xmlns="http://www.w3.org/2000/svg"
  xmlns:svg="http://www.w3.org/2000/svg">
	<defs id="defs1" />
		<path
       style="fill:none; stroke: #fff"
       d="m 150,55 c 10,0 21,-3.226497 31,-9 l -1,5 c -9,6 -20,9 -30,9"
       id="path2" />
		<path
       style="fill:none; stroke: #fff"
       d="m 150,65 h 2 v 4 h -2"
       id="path3" />
		<path
       style="fill:none; stroke: #fff"
       d="m 150,92 h 6 l 6,-13 c 2.33333,0.193921 6.66667,-2.139412 13,-7 -2.00834,5.012801 -3.60697,10.441852 -10,11 l -6,13 h -9"
       id="path5" />
		<path
       style="fill:none; stroke: #fff"
       d="m 150,106 h 8 c 8.34649,-13.652051 19.84318,-23.803616 25,-41 h 5 l -3,13 c 3,1 2,5 3.41229,5 L 190,80 l 11,3 v 3 c 2,0 2,-4 5,-4 l 3,-14 7,3 -5,37 1,5 -51,29 h -11"
       id="path6" />
		<path
       style="fill:none; stroke: #fff"
       d="m 150,126 h 7 l 4,6 h -11"
       id="path7" />
		<path
       style="fill:none; stroke: #fff"
       d="m 172.75842,108 8.48315,8 -2,2 -8.48315,-8 z"
       id="path8" />
		<path
       style="fill:none; stroke: #fff"
       d="m 177.51685,103 9.48315,9 -2,2 -9.48315,-9 z"
       id="path9" />
		<path
       style="fill:none; stroke: #fff"
       d="m 177.51685,103 9.48315,9 -2,2 -9.48315,-9 z"
       id="path10" />
		<path
       style="fill:none; stroke: #fff"
       d="M 182.01687,98.50002 192,108 l -2,2 -9.98313,-9.49998 z"
       id="path11" />
		<path
       style="fill:none; stroke: #fff"
       d="M 187.01687,93.50002 198,104 l -2,2 -10.98313,-10.49998 z"
       id="path12" />
		<path
       style="fill:none; stroke: #fff"
       d="m 150,150 h 7 c 1.33333,-0.66667 2.66667,-1.66667 4,-5 l 5,-3 c -1.66667,4.33333 -4,8 -7,11 h -9"
       id="path15" />
		<path
       style="fill:none; stroke: #fff"
       d="m 150,160 h 10 l 9,-9 2,2 -10,10 h -11"
       id="path16" />
		<path
       style="fill:none; stroke: #fff"
       d="m 150,178 h 8 l 20,-19 3,3 -21,20 h -10"
       id="path17" />
		<path
       style="fill:none; stroke: #fff"
       d="m 150,199 h 8 l 17,-16 v -6 l 12,-10 4,3 c -4.00033,2.67688 -8.0587,7.14529 -12,8 v 7 l -19,18 h -10"
       id="path18" />
		<path
       style="fill:none; stroke: #fff"
       d="m 150,220 h 8 l 27,-25 v 5 l -26,25 h -9"
       id="path19" />
		<path
       style="fill:none; stroke: #fff"
       d="m 186,191 v 27 l -8,4 -21,21 h -7"
       id="path20" />
		<path
       style="fill:none; stroke: #fff"
       d="m 150,247 h 9 l 22,-22 30,-15 v -5 l -20,10 v -21 l 17,-10 -4,-4 -18,11"
       id="path21" />
		<path
       style="fill:none; stroke: #fff"
       d="m 193,198 2,3 15,-7 v -4 z"
       id="path23" />
		<path
       style="fill:none; stroke: #fff"
       d="m 193,206 2,3 15,-7 v -4 z"
       id="path24" />
		<path
       style="fill:none; stroke: #fff"
       d="m 184,61 5,1 4,-15 18,9 -1,9 6,2 V 53 L 189,39 Z"
       id="path26" />
		<path
       style="fill:none; stroke: #fff"
       d="m 222,100 15,16 v 20 c 12.19768,-7.31861 16,-10 16,-10 V 82 L 228,59 Z"
       id="path27" />
		<path
       style="fill:none; stroke: #fff"
       d="M 241.55188,76 240,93 l 8,8 V 83 Z"
       id="path28" />
		<path
       style="fill:none; stroke: #fff"
       d="m 172,141 v 6 l 44,36 7,-18 c 4.41685,-2.01284 4.66687,-14.66615 7,-22 -6.60101,-6.56728 -15.10306,-10.48615 -16,-25 z"
       id="path29" />
    <g transform="matrix(-1,0,0,1,300,0)" >
		<use xlink:href="#path2" />
		<use xlink:href="#path3" />
		<use xlink:href="#path4" />
		<use xlink:href="#path5" />
		<use xlink:href="#path6" />
		<use xlink:href="#path7" />
		<use xlink:href="#path8" />
		<use xlink:href="#path9" />
		<use xlink:href="#path10" />
		<use xlink:href="#path11" />
		<use xlink:href="#path12" />
		<use xlink:href="#path15" />
		<use xlink:href="#path16" />
		<use xlink:href="#path17" />
		<use xlink:href="#path18" />
		<use xlink:href="#path19" />
		<use xlink:href="#path20" />
		<use xlink:href="#path21" />
		<use xlink:href="#path23" />
		<use xlink:href="#path24" />
		<use xlink:href="#path26" />
		<use xlink:href="#path27" />
		<use xlink:href="#path28" />
		<use xlink:href="#path29" />
	</g>
</svg>
