<?xml version="1.0" encoding="UTF-8" standalone="no"?>
<!-- Created with Inkscape (http://www.inkscape.org/) -->

<svg
   width="500"
   height="500"
   viewBox="0 0 500 500"
   version="1.1"
   xml:space="preserve"
   id="svg1"
   xmlns="http://www.w3.org/2000/svg"
   xmlns:svg="http://www.w3.org/2000/svg"><defs
     id="defs1" /><g
     id="layer1"><rect
       style="fill:#000000;fill-opacity:0;stroke:#ffffff;stroke-width:2.91042;stroke-linecap:square;stroke-dasharray:none;stroke-opacity:1"
       id="rect1"
       width="10"
       height="90"
       x="45"
       y="200"
       ry="0" /><rect
       style="fill:#000000;fill-opacity:0;stroke:#ffffff;stroke-width:2.91042;stroke-linecap:square;stroke-dasharray:none;stroke-opacity:1"
       id="rect1-7"
       width="10"
       height="90"
       x="61.873699"
       y="200"
       ry="0" /><rect
       style="fill:#000000;fill-opacity:0;stroke:#ffffff;stroke-width:2.91042;stroke-linecap:square;stroke-dasharray:none;stroke-opacity:1"
       id="rect2"
       width="31.115898"
       height="13.166501"
       x="78.884102"
       y="199.54999" /><path
       d="m 77.98387,242.89628 1.02e-4,34.39807 L 112,243 c -11.33853,-0.11059 -22.677244,-0.10372 -34.01613,-0.10372 z"
       style="fill-opacity:0;stroke:#ffffff;stroke-width:2.91042;stroke-linecap:square;stroke-dasharray:none;stroke-opacity:1"
       id="path73" /><path
       d="M 151,265 113.16107,303.93085 147,337 l 8,-8 -17,-17 31,-32 h 5 v -15 z"
       style="fill-opacity:0;stroke:#ffffff;stroke-width:2.91042;stroke-linecap:square;stroke-dasharray:none;stroke-opacity:1"
       id="path72" /><rect
       style="fill:#000000;fill-opacity:0;stroke:#ffffff;stroke-width:2.91042;stroke-linecap:square;stroke-dasharray:none;stroke-opacity:1"
       id="rect6"
       width="9.6193504"
       height="6.4107013"
       x="-110.10045"
       y="327.26062"
       transform="rotate(-44.647765)" /><rect
       style="fill:#000000;fill-opacity:0;stroke:#ffffff;stroke-width:2.91042;stroke-linecap:square;stroke-dasharray:none;stroke-opacity:1"
       id="rect6-5"
       width="9.6193504"
       height="6.4107013"
       x="-89.607773"
       y="325.01328"
       transform="rotate(-44.647765)" /><path
       d="m 226.55775,292.20955 v 54.79046 L 234,354 l -7,3 v 12 l 12,-5 -1.2e-4,-71.79045 z"
       style="fill-opacity:0;stroke:#ffffff;stroke-width:2.91042;stroke-linecap:square;stroke-dasharray:none;stroke-opacity:1"
       id="path71" /><path
       d="M 245.39432,292.20955 245,362 l 8.00006,-3.00021 v -66.79024 z"
       style="fill-opacity:0;stroke:#ffffff;stroke-width:2.91042;stroke-linecap:square;stroke-dasharray:none;stroke-opacity:1"
       id="path70" /><path
       d="M 259.65133,292.20955 259,358 l 8.00024,-2.99996 v -62.79049 z"
       style="fill-opacity:0;stroke:#ffffff;stroke-width:2.91042;stroke-linecap:square;stroke-dasharray:none;stroke-opacity:1"
       id="path69" /><path
       d="M 273.90886,292.20955 274,352 l 11.87661,-4.54989 v -55.24056 z"
       style="fill-opacity:0;stroke:#ffffff;stroke-width:2.91042;stroke-linecap:square;stroke-dasharray:none;stroke-opacity:1"
       id="path68" /><rect
       style="fill:#000000;fill-opacity:0;stroke:#ffffff;stroke-width:4.16652;stroke-linecap:square;stroke-dasharray:none;stroke-opacity:1"
       id="rect23-6"
       width="14.440805"
       height="19.577713"
       x="167.77959"
       y="335" /><rect
       style="fill:#000000;fill-opacity:0;stroke:#ffffff;stroke-width:4.16652;stroke-linecap:square;stroke-dasharray:none;stroke-opacity:1"
       id="rect23-3"
       width="14.440805"
       height="19.577713"
       x="167.77959"
       y="335" /><path
       d="M 282.49992,356.49996 226,377 v 10 l 3.10215,-1.12043 56.76759,-19.6386 -0.36966,-10.74092 z"
       style="fill-opacity:0;stroke:#ffffff;stroke-width:2.91042;stroke-linecap:square;stroke-dasharray:none;stroke-opacity:1"
       id="path66" /><path
       d="m 229,241 h -52 v 16 h 43 l 1e-5,28.07872 h 66.3267 l -9e-5,-18.06835 L 314,241 h -29 l -22,23.54531 -12,-8.9e-4 z"
       style="fill-opacity:0;stroke:#ffffff;stroke-width:4.17445;stroke-linecap:square;stroke-dasharray:none;stroke-opacity:1"
       id="path75" /><rect
       style="fill:#000000;fill-opacity:0;stroke:#ffffff;stroke-width:2.91042;stroke-linecap:square;stroke-dasharray:none;stroke-opacity:1"
       id="rect18"
       width="30.000002"
       height="14.70167"
       x="332"
       y="283" /><rect
       style="fill:#000000;fill-opacity:0;stroke:#ffffff;stroke-width:2.91042;stroke-linecap:square;stroke-dasharray:none;stroke-opacity:1"
       id="rect19"
       width="30.000002"
       height="5.0000024"
       x="332"
       y="304" /><rect
       style="fill:#000000;fill-opacity:0;stroke:#ffffff;stroke-width:2.91042;stroke-linecap:square;stroke-dasharray:none;stroke-opacity:1"
       id="rect19-1"
       width="30.000002"
       height="5.3898034"
       x="332"
       y="315.6102" /><rect
       style="fill:#000000;fill-opacity:0;stroke:#ffffff;stroke-width:2.91042;stroke-linecap:square;stroke-dasharray:none;stroke-opacity:1"
       id="rect19-1-2"
       width="30.000002"
       height="8.2990332"
       x="332"
       y="327" /><path
       d="m 429.00017,213.99986 v 22.00021 h 8.00003 23.99957 v -6.00016 H 437.0002 v -9.9999 h 23.40012 v -6.00015 H 437.0002 Z"
       style="fill-opacity:0;stroke:#ffffff;stroke-width:2.91042;stroke-linecap:square;stroke-dasharray:none;stroke-opacity:1"
       id="path61" /><rect
       style="fill:#000000;fill-opacity:0;stroke:#ffffff;stroke-width:2.91042;stroke-linecap:square;stroke-dasharray:none;stroke-opacity:1"
       id="rect23"
       width="14.440805"
       height="19.577713"
       x="407.7796"
       y="215" /><path
       d="m 236,179 9,8 h 125 l 15,16 h 18 l -23,-24 z"
       style="fill-opacity:0;stroke:#ffffff;stroke-width:2.91042;stroke-linecap:square;stroke-dasharray:none;stroke-opacity:1"
       id="path78" /><path
       d="m 248,224 h -24 l 11,7.94853 45,0.0515 12,2 -12,-10 z"
       style="fill-opacity:0;stroke:#ffffff;stroke-width:2.91042;stroke-linecap:square;stroke-dasharray:none;stroke-opacity:1"
       id="path76" /><rect
       style="fill:none;fill-opacity:1;stroke:#ffffff;stroke-width:2.91042;stroke-linecap:square;stroke-dasharray:none;stroke-opacity:1"
       id="rect43"
       width="16.390902"
       height="7.0000019"
       x="312.6091"
       y="219"
       ry="3.0000017"
       rx="4.1107154" /><rect
       style="fill:none;fill-opacity:1;stroke:#ffffff;stroke-width:2.91042;stroke-linecap:square;stroke-dasharray:none;stroke-opacity:1"
       id="rect43-8"
       width="13.999997"
       height="6.9999981"
       x="335"
       y="219"
       ry="3.499999"
       rx="1.5284739" /><rect
       style="fill:none;fill-opacity:1;stroke:#ffffff;stroke-width:2.91042;stroke-linecap:square;stroke-dasharray:none;stroke-opacity:1"
       id="rect43-8-4"
       width="13.999997"
       height="6.9999981"
       x="354.52164"
       y="219"
       ry="1.0000017"
       rx="2.3747315" /><rect
       style="fill:none;fill-opacity:1;stroke:#ffffff;stroke-width:2.91042;stroke-linecap:square;stroke-dasharray:none;stroke-opacity:1"
       id="rect43-8-4-7"
       width="16.000004"
       height="7.0000019"
       x="374"
       y="219"
       ry="3.499999"
       rx="3.8096919" /><path
       d="m 320,243 -6.8979,7 10.8979,8 57.99994,-2.4e-4 L 395,243 l -13.00006,1.5e-4 z"
       style="fill-opacity:0;stroke:#ffffff;stroke-width:2.91042;stroke-linecap:square;stroke-dasharray:none;stroke-opacity:1"
       id="path64" /><path
       d="M 331.99989,264.99985 323,265 l 9,11 h 30 l 11,-11 -10.05678,-1.5e-4 z"
       style="fill-opacity:0;stroke:#ffffff;stroke-width:2.91042;stroke-linecap:square;stroke-dasharray:none;stroke-opacity:1"
       id="path65" /><path
       d="m 185.89305,197.9998 h -50.77778 l 40.61457,38.00027 h 50.27032 v -0.47491 z"
       style="fill-opacity:0;stroke:#ffffff;stroke-width:2.91042;stroke-linecap:square;stroke-dasharray:none;stroke-opacity:1"
       id="path57" /><path
       d="m 227,179 h -69 l -12,12 h 34 l 4,-4 h 37 l 17,15 13.496,2.7e-4 v -0.47491 z"
       style="fill-opacity:0;stroke:#ffffff;stroke-width:2.91042;stroke-linecap:square;stroke-dasharray:none;stroke-opacity:1"
       id="path57-71" /><path
       d="m 401.47083,208 -195,-1 11,11 h 67 l 17,17 h 100 z"
       style="fill-opacity:0;stroke:#ffffff;stroke-width:2.91042;stroke-linecap:square;stroke-dasharray:none;stroke-opacity:1"
       id="path57-7" /><rect
       style="fill:#000000;fill-opacity:0;stroke:#ffffff;stroke-width:4.16652;stroke-linecap:square;stroke-dasharray:none;stroke-opacity:1"
       id="rect23-9"
       width="14.440805"
       height="19.577713"
       x="167.77959"
       y="335" /><path
       d="m 118.00003,197.9998 v 8.67027 6.94635 h 8.00003 0.0687 v 5.13612 h -0.0687 -8.00003 -0.35656 -11.68095 -27.528548 v 16.69769 h 28.901598 10.66446 8.00003 37.85092 L 147.09128,218.75254 126.45016,198.18842 126.26154,198 H 126 Z"
       style="fill-opacity:0;stroke:#ffffff;stroke-width:2.91042;stroke-linecap:square;stroke-dasharray:none;stroke-opacity:1"
       id="path62" /><path
       d="m 240,241 17,18 16,-18 z"
       style="fill-opacity:0;stroke:#ffffff;stroke-width:2.91042;stroke-linecap:square;stroke-dasharray:none;stroke-opacity:1"
       id="path74" /><path
       d="m 182,265 v 10 l 7,-3 v -7 z"
       style="fill-opacity:0;stroke:#ffffff;stroke-width:2.91042;stroke-linecap:square;stroke-dasharray:none;stroke-opacity:1"
       id="path77" /><rect
       style="fill:#000000;fill-opacity:0;stroke:#ffffff;stroke-width:2.91042;stroke-linecap:square;stroke-dasharray:none;stroke-opacity:1"
       id="rect77"
       width="5.0583205"
       height="6.3228474"
       x="193.94168"
       y="264.67715" /><rect
       style="fill:none;fill-opacity:1;stroke:#ffffff;stroke-width:2.91042;stroke-linecap:square;stroke-dasharray:none;stroke-opacity:1"
       id="rect78"
       width="36"
       height="4.9999981"
       x="179"
       y="281" /><rect
       style="fill:none;fill-opacity:1;stroke:#ffffff;stroke-width:2.91042;stroke-linecap:square;stroke-dasharray:none;stroke-opacity:1"
       id="rect79"
       width="15.999999"
       height="17.999998"
       x="151"
       y="240" /></g></svg>
