<?xml version="1.0" encoding="UTF-8" standalone="no"?>
<!-- Created with Inkscape (http://www.inkscape.org/) -->

<svg
  width="500"
  height="200"
  viewBox="0 0 500 200"
  version="1.1"
  id="svg1"
  xml:space="preserve"
  xmlns:xlink="http://www.w3.org/1999/xlink"
  xmlns="http://www.w3.org/2000/svg"
  xmlns:svg="http://www.w3.org/2000/svg"><defs
     id="defs1" /><g
     id="layer1">
     <path
       style="fill:none;stroke:#ffffff;stroke-width:1;stroke-linecap:round;stroke-dasharray:none;paint-order:fill markers stroke"
       d="m 30.236221,69.004942 v 63.278528 c 0,7.55905 7.559056,7.55905 7.559056,0 V 69.004942 c 0,-7.559055 -7.559056,-7.559055 -7.559056,0 z"
       id="path1" /><path
       style="fill:none;stroke:#ffffff;stroke-width:1;stroke-linecap:round;stroke-linejoin:bevel;stroke-dasharray:none;paint-order:fill markers stroke"
       d="m 37.795277,68.031498 c 3.779527,0 3.779527,0 3.779527,3.779528 1.301978,1.301978 1.268473,1.327854 2.021569,2.632254 H 105.82677 V 88.840343 H 42.049293 l -0.03992,4.615356 h 63.817397 v 4.81202 c 1e-5,0 -1.34905,-0.696643 -1.94642,-2.02537 H 45.354332 v 28.482061 h -3.779528 v 6.95066 c 0,1.9114 -2.167043,1.57328 -3.779527,1.62112"
       id="path2" /><path
       style="fill:none;stroke:#ffffff;stroke-width:1;stroke-linecap:square;stroke-linejoin:round;stroke-dasharray:none;paint-order:fill markers stroke"
       d="m 41.574804,77.408327 v 8.373536"
       id="path3" /><path
       style="fill:none;stroke:#ffffff;stroke-width:1;stroke-linecap:square;stroke-linejoin:round;stroke-dasharray:none;paint-order:fill markers stroke"
       d="M 41.574804,96.231866 V 120.94489"
       id="path4" /><path
       style="fill:none;stroke:#ffffff;stroke-width:1;stroke-linecap:square;stroke-linejoin:bevel;stroke-dasharray:none;paint-order:fill markers stroke"
       d="m 117.16536,75.590553 v 15.118111 l -1.01272,3.779528 v 3.779527 l 1.31141,1.311416 h 9.63989 v -1.311416 l 1.01272,-3.779527 1.01272,-3.779528 V 75.590553 Z"
       id="path5" /><path
       style="fill:none;stroke:#ffffff;stroke-width:1;stroke-linecap:square;stroke-linejoin:bevel;stroke-dasharray:none;paint-order:fill markers stroke"
       id="path6"
       d="m 125.96271,80.650574 a 2.9724798,2.9724798 0 0 1 -2.77807,2.966115 2.9724798,2.9724798 0 0 1 -3.14146,-2.578129 2.9724798,2.9724798 0 0 1 2.36714,-3.303351 2.9724798,2.9724798 0 0 1 3.4511,2.14603" /><path
       style="fill:none;stroke:#ffffff;stroke-width:1;stroke-linecap:square;stroke-linejoin:bevel;stroke-dasharray:none;paint-order:fill markers stroke"
       id="path6-1"
       d="m 82.649612,81.081047 a 3.7795258,3.7795258 0 0 1 -3.532333,3.771434 3.7795258,3.7795258 0 0 1 -3.994384,-3.278107 3.7795258,3.7795258 0 0 1 3.009843,-4.20023 3.7795258,3.7795258 0 0 1 4.38809,2.72869" /><path
       style="fill:none;stroke:#ffffff;stroke-width:1;stroke-linecap:square;stroke-linejoin:bevel;stroke-dasharray:none;paint-order:fill markers stroke"
       id="path6-7"
       d="m 266.49643,80.765198 a 1.9295044,1.9295044 0 0 1 -1.80331,1.925373 1.9295044,1.9295044 0 0 1 -2.03919,-1.673522 1.9295044,1.9295044 0 0 1 1.53657,-2.144281 1.9295044,1.9295044 0 0 1 2.24018,1.393037" /><path
       style="fill:none;stroke:#ffffff;stroke-width:1;stroke-linecap:square;stroke-linejoin:bevel;stroke-dasharray:none;paint-order:fill markers stroke"
       id="path6-3"
       d="m 144.052,116.35831 a 1.8599727,1.8599727 0 0 1 -1.73832,1.85599 1.8599727,1.8599727 0 0 1 -1.96571,-1.61322 1.8599727,1.8599727 0 0 1 1.4812,-2.06701 1.8599727,1.8599727 0 0 1 2.15946,1.34284" /><path
       style="fill:none;stroke:#ffffff;stroke-width:1;stroke-linecap:square;stroke-linejoin:bevel;stroke-dasharray:none;paint-order:fill markers stroke"
       d="m 105.82677,74.44328 4.14314,-2.392042 H 354.7715"
       id="path7" /><path
       style="fill:none;stroke:#ffffff;stroke-width:1;stroke-linecap:round;stroke-linejoin:bevel;stroke-dasharray:none;paint-order:fill markers stroke"
       d="m 105.82677,94.488192 h 10.32587 v 3.779527 h -10.32587"
       id="path8" /><path
       style="fill:none;stroke:#ffffff;stroke-width:1;stroke-linecap:square;stroke-linejoin:bevel;stroke-dasharray:none;paint-order:fill markers stroke"
       d="m 127.10394,98.267719 8.95906,3.779531 -2.02545,7.55905 -20.65172,30.23622 v 3.77953 l 18.89764,3.77953 3.77953,2.30016 1.95741,-2.30016 -1.01272,-3.77953 15.27478,-26.45669 v -13.91079 l -2.09114,-1.20732 H 136.063"
       id="path9" /><path
       style="fill:none;stroke:#ffffff;stroke-width:1;stroke-linecap:square;stroke-linejoin:bevel;stroke-dasharray:none;paint-order:fill markers stroke"
       id="path10"
       d="m 132.72388,134.64334 a 1.8599727,1.8599727 0 0 1 -1.73833,1.85599 1.8599727,1.8599727 0 0 1 -1.9657,-1.61321 1.8599727,1.8599727 0 0 1 1.48119,-2.06701 1.8599727,1.8599727 0 0 1 2.15946,1.34283" /><path
       style="fill:none;stroke:#ffffff;stroke-width:1;stroke-linecap:square;stroke-linejoin:round;stroke-dasharray:none;paint-order:fill markers stroke"
       d="m 154.96063,103.01121 v 14.15415 h 2.01642 c 13.78073,3.44123 23.65088,4.16835 30.13193,-0.17383 l 1.8674,-1.10437 v -12.91072 z"
       id="path11" /><path
       style="fill:none;stroke:#ffffff;stroke-width:1;stroke-linecap:square;stroke-linejoin:round;stroke-dasharray:none;paint-order:fill markers stroke"
       d="m 159.64473,103.00642 v 2.82035 c -0.90457,0 -1.66897,0.59111 -1.66897,1.66898 v 5.49325 c 0,1.82413 2.98371,4.17636 4.54393,4.17636 h 18.89764 c 1.46851,0 3.77953,-1.29635 3.77953,-3.41195 v -4.14711 c 0,-2.92136 -2.46594,-5.03937 -6.61924,-6.61923"
       id="path12" /><path
       style="fill:none;stroke:#ffffff;stroke-width:1;stroke-linecap:square;stroke-linejoin:round;stroke-dasharray:none;paint-order:fill markers stroke"
       d="m 162.51969,103.07722 v 4.15455 c 0,1.41374 -2.08995,1.06806 -2.08995,3.41706 0,2.48356 -0.52868,3.8979 2.08995,6.51653"
       id="path13" /><path
       style="fill:none;stroke:#ffffff;stroke-width:1;stroke-linecap:square;stroke-linejoin:miter;stroke-dasharray:none;paint-order:fill markers stroke"
       d="m 128.11666,94.488192 h 56.16826 l 1.80965,-1.809654 h 10.44087 l 1.89988,1.809654 h 32.69561 l 9.29244,7.559058 h 2.65498 L 230.55119,91.547712 h 22.67716 c -2.63537,1.680637 -4.82887,3.972679 -4.82887,6.720007 v 30.236221 c 0.022,0.67756 0.37179,1.02734 1.04935,1.04935 h 3.14036 v 2.73018 h -56.05375 v 2.48145 h -5.22924 v -31.78604 h -2.32982"
       id="path14" /><path
       style="fill:none;stroke:#ffffff;stroke-width:1;stroke-linecap:square;stroke-linejoin:miter;stroke-dasharray:none;paint-order:fill markers stroke"
       d="m 196.53544,92.678538 v 9.368712 l 7.55905,3.77952 h 37.79528"
       id="path15" /><path
       style="fill:none;stroke:#ffffff;stroke-width:1;stroke-linecap:square;stroke-linejoin:miter;stroke-dasharray:none;paint-order:fill markers stroke"
       d="m 188.97638,90.708664 h 66.83605 V 75.590553 h -59.27699 v 7.559056 z"
       id="path16" /><path
       style="fill:none;stroke:#ffffff;stroke-width:1;stroke-linecap:round;stroke-linejoin:round;stroke-dasharray:none;paint-order:fill markers stroke"
       d="m 248.39948,128.50394 h 12.38793 l 1.69474,-22.67717 h 73.89581 l 7.55906,-3.77952 v -4.894576 l -7.55906,-6.44401 h -37.79527 l -5.15801,-5.060912 -2.40105,-0.39333 v -5.884341 h 64.25197 c 1.91512,0 1.90799,-7.318843 0,-7.318843"
       id="path17" /><path
       style="fill:none;stroke:#ffffff;stroke-width:1;stroke-linecap:square;stroke-linejoin:bevel;stroke-dasharray:none;paint-order:fill markers stroke"
       id="path18"
       d="m 283.46457,80.765198 a 1.9295044,1.9295044 0 0 1 -1.80331,1.925373 1.9295044,1.9295044 0 0 1 -2.03919,-1.673522 1.9295044,1.9295044 0 0 1 1.53657,-2.144281 1.9295044,1.9295044 0 0 1 2.24018,1.393037" /><circle
       style="fill:none;stroke:#ffffff;stroke-width:1;stroke-linecap:square;stroke-linejoin:bevel;stroke-dasharray:none;paint-order:fill markers stroke"
       id="path19"
       cx="263.45441"
       cy="92.558685"
       r="4.6064749" /><path
       style="fill:none;stroke:#ffffff;stroke-width:1;stroke-linecap:round;stroke-linejoin:round;stroke-dasharray:none;paint-order:fill markers stroke"
       d="M 128.50394,71.811026 136.063,64.25197 h 154.96063 l 11.33858,6.546334 2.17015,1.252934"
       id="path20" /><path
       style="fill:none;stroke:#ffffff;stroke-width:1;stroke-linecap:round;stroke-linejoin:bevel;stroke-dasharray:none;paint-order:fill markers stroke"
       d="m 352.52261,71.811026 2.75299,-1.589441 h 18.89764 c 3.77953,0 5.78418,1.589441 5.78418,5.368968 v 31.788717 h -9.56371 l -3.07844,-5.33202 h -23.37825"
       id="path21" /><path
       style="fill:none;stroke:#ffffff;stroke-width:1;stroke-linecap:round;stroke-linejoin:bevel;stroke-dasharray:none;paint-order:fill markers stroke"
       d="m 192.75591,136.063 h 5.67941 v -1.81468 h 43.45445 v 35.83042 h -7.55905 l -2.07318,-2.07317 h -22.4648 l -2.07317,2.07317 h -7.4046 l -7.55906,-7.55905 z"
       id="path22" /><path
       style="fill:none;stroke:#ffffff;stroke-width:1;stroke-linecap:round;stroke-linejoin:bevel;stroke-dasharray:none;paint-order:fill markers stroke"
       d="m 234.33072,134.42075 v 35.65799"
       id="path23" /><path
       style="fill:none;stroke:#ffffff;stroke-width:1;stroke-linecap:round;stroke-linejoin:round;stroke-dasharray:none;paint-order:fill markers stroke"
       d="m 202.17196,109.6063 c -1.44221,2.51969 -1.44221,5.03937 0,7.55906 h 41.49639 c -2.37144,-2.51969 -2.37144,-5.03937 0,-7.55906 z"
       id="path24" /><path
       style="fill:none;stroke:#ffffff;stroke-width:1;stroke-linecap:round;stroke-linejoin:round;stroke-dasharray:none;paint-order:fill markers stroke"
       d="m 202.17196,120.94489 c -1.44221,2.51969 -1.44221,5.03937 0,7.55906 h 41.49639 c -2.37144,-2.51969 -2.37144,-5.03937 0,-7.55906 z"
       id="path25" /><path
       style="fill:none;stroke:#ffffff;stroke-width:1;stroke-linecap:round;stroke-linejoin:round;stroke-dasharray:none;paint-order:fill markers stroke"
       d="m 243.66835,109.6063 c 2.26165,2.51969 2.26165,5.03937 0,7.55906"
       id="path26" /><path
       style="fill:none;stroke:#ffffff;stroke-width:1;stroke-linecap:round;stroke-linejoin:round;stroke-dasharray:none;paint-order:fill markers stroke"
       d="m 243.66835,120.94489 c 2.26165,2.51969 2.26165,5.03937 0,7.55906"
       id="path28" /><path
       style="fill:none;stroke:#ffffff;stroke-width:1;stroke-linecap:round;stroke-linejoin:round;stroke-dasharray:none;paint-order:fill markers stroke"
       d="M 164.44246,64.25197 V 60.472443 H 291.02363 V 64.25197"
       id="path29" /><path
       style="fill:none;stroke:#ffffff;stroke-width:1;stroke-linecap:round;stroke-linejoin:round;stroke-dasharray:none;paint-order:fill markers stroke"
       d="M 222.99213,60.472443 V 64.25197"
       id="path30" /><path
       style="fill:none;stroke:#ffffff;stroke-width:1;stroke-linecap:round;stroke-linejoin:round;stroke-dasharray:none;paint-order:fill markers stroke"
       d="M 226.77166,60.472443 V 64.25197"
       id="path31" /><path
       style="fill:none;stroke:#ffffff;stroke-width:1;stroke-linecap:round;stroke-linejoin:round;stroke-dasharray:none;paint-order:fill markers stroke"
       d="M 230.55119,60.472443 V 64.25197"
       id="path32" /><path
       style="fill:none;stroke:#ffffff;stroke-width:1;stroke-linecap:round;stroke-linejoin:round;stroke-dasharray:none;paint-order:fill markers stroke"
       d="M 234.33072,60.472443 V 64.25197"
       id="path33" /><path
       style="fill:none;stroke:#ffffff;stroke-width:1;stroke-linecap:round;stroke-linejoin:round;stroke-dasharray:none;paint-order:fill markers stroke"
       d="M 238.11024,60.472443 V 64.25197"
       id="path34" /><path
       style="fill:none;stroke:#ffffff;stroke-width:1;stroke-linecap:round;stroke-linejoin:round;stroke-dasharray:none;paint-order:fill markers stroke"
       d="M 241.88977,60.472443 V 64.25197"
       id="path35" /><path
       style="fill:none;stroke:#ffffff;stroke-width:1;stroke-linecap:round;stroke-linejoin:round;stroke-dasharray:none;paint-order:fill markers stroke"
       d="M 245.6693,60.472443 V 64.25197"
       id="path36" /><path
       style="fill:none;stroke:#ffffff;stroke-width:1;stroke-linecap:round;stroke-linejoin:round;stroke-dasharray:none;paint-order:fill markers stroke"
       d="M 249.44883,60.472443 V 64.25197"
       id="path37" /><path
       style="fill:none;stroke:#ffffff;stroke-width:1;stroke-linecap:round;stroke-linejoin:round;stroke-dasharray:none;paint-order:fill markers stroke"
       d="M 253.22835,60.472443 V 64.25197"
       id="path38" /><path
       style="fill:none;stroke:#ffffff;stroke-width:1;stroke-linecap:round;stroke-linejoin:round;stroke-dasharray:none;paint-order:fill markers stroke"
       d="M 257.00788,60.472443 V 64.25197"
       id="path39" /><path
       style="fill:none;stroke:#ffffff;stroke-width:1;stroke-linecap:round;stroke-linejoin:round;stroke-dasharray:none;paint-order:fill markers stroke"
       d="M 260.78741,60.472443 V 64.25197"
       id="path40" /><path
       style="fill:none;stroke:#ffffff;stroke-width:1;stroke-linecap:round;stroke-linejoin:round;stroke-dasharray:none;paint-order:fill markers stroke"
       d="M 264.56694,60.472443 V 64.25197"
       id="path41" /><path
       style="fill:none;stroke:#ffffff;stroke-width:1;stroke-linecap:round;stroke-linejoin:round;stroke-dasharray:none;paint-order:fill markers stroke"
       d="M 268.34646,60.472443 V 64.25197"
       id="path42" /><path
       style="fill:none;stroke:#ffffff;stroke-width:1;stroke-linecap:round;stroke-linejoin:round;stroke-dasharray:none;paint-order:fill markers stroke"
       d="M 272.12599,60.472443 V 64.25197"
       id="path43" /><path
       style="fill:none;stroke:#ffffff;stroke-width:1;stroke-linecap:round;stroke-linejoin:round;stroke-dasharray:none;paint-order:fill markers stroke"
       d="M 275.90552,60.472443 V 64.25197"
       id="path44" /><path
       style="fill:none;stroke:#ffffff;stroke-width:1;stroke-linecap:round;stroke-linejoin:round;stroke-dasharray:none;paint-order:fill markers stroke"
       d="M 279.68505,60.472443 V 64.25197"
       id="path45" /><path
       style="fill:none;stroke:#ffffff;stroke-width:1;stroke-linecap:round;stroke-linejoin:round;stroke-dasharray:none;paint-order:fill markers stroke"
       d="m 379.95742,76.797812 h 54.68826 c 3.77953,0 3.77953,10.131324 0,10.131324 h -54.68826"
       id="path46" /><path
       style="fill:none;stroke:#ffffff;stroke-width:1;stroke-linecap:round;stroke-linejoin:round;stroke-dasharray:none;paint-order:fill markers stroke"
       d="m 434.64568,76.797812 c 0,-0.815482 0,-1.207259 0.73749,-1.207259 h 3.04204 c 3.77953,0 3.77953,11.338583 0,11.338583 h -3.77953"
       id="path47" /><path
       style="fill:none;stroke:#ffffff;stroke-width:1;stroke-linecap:round;stroke-linejoin:round;stroke-dasharray:none;paint-order:fill markers stroke"
       d="m 442.64961,76.797812 c 0,-0.815482 0,-1.207259 0.73749,-1.207259 h 3.04204 c 3.77953,0 3.77953,11.338583 0,11.338583 h -3.77953"
       id="path48" /><path
       style="fill:none;stroke:#ffffff;stroke-width:1;stroke-linecap:round;stroke-linejoin:round;stroke-dasharray:none;paint-order:fill markers stroke"
       d="m 440.25676,76.797812 h 2.39285 c 3.33465,0 3.33465,10.131324 0,10.131324 h -4.2244"
       id="path49" /><path
       style="fill:none;stroke:#ffffff;stroke-width:1;stroke-linecap:round;stroke-linejoin:round;stroke-dasharray:none;paint-order:fill markers stroke"
       d="m 448.26069,76.797812 h 18.81948 c 4.47579,0 4.63703,10.131324 0,10.131324 h -21.09591"
       id="path50" /><path
       style="fill:none;stroke:#ffffff;stroke-width:1;stroke-linecap:round;stroke-linejoin:round;stroke-dasharray:none;paint-order:fill markers stroke"
       d="m 338.54518,92.556193 1.06667,-1.847529 h 8.1047 l 2.13422,2.134227 -1.6453,1.645301 h -7.39399"
       id="path51" /><path
       style="fill:none;stroke:#ffffff;stroke-width:1;stroke-linecap:round;stroke-linejoin:round;stroke-dasharray:none;paint-order:fill markers stroke"
       d="m 351.49607,92.842891 2.13423,-2.134227 h 6.36559 l 2.16493,2.164929 -1.6146,1.614599 h -7.97444"
       id="path52" /><path
       style="fill:none;stroke:#ffffff;stroke-width:1;stroke-linecap:round;stroke-linejoin:round;stroke-dasharray:none;paint-order:fill markers stroke"
       d="M 349.85077,92.842891 Z"
       id="path53" /><path
       style="fill:none;stroke:#ffffff;stroke-width:1;stroke-linecap:round;stroke-linejoin:round;stroke-dasharray:none;paint-order:fill markers stroke"
       d="m 352.57178,94.488192 h 7.97444 l 1.6146,-1.614599 -2.16493,-2.164929 h -6.36559 l -2.13423,2.134227 z"
       id="path54" /><path
       style="fill:none;stroke:#ffffff;stroke-width:1;stroke-linecap:round;stroke-linejoin:round;stroke-dasharray:none;paint-order:fill markers stroke"
       d="m 363.68553,92.511921 1.97627,1.976271 h 7.75817 l 1.89205,-1.892048 -1.08974,-1.88748 h -8.93752 z"
       id="path55" /><path
       style="fill:none;stroke:#ffffff;stroke-width:1;stroke-linecap:round;stroke-linejoin:round;stroke-dasharray:none;paint-order:fill markers stroke"
       d="m 306.14174,85.975941 v -2.826332 h 2.92665 l 2.85594,2.855949 v 2.92548 h -2.00306 -1.30484 z"
       id="path56" /><path
       style="fill:none;stroke:#ffffff;stroke-width:1;stroke-linecap:round;stroke-linejoin:round;stroke-dasharray:none;paint-order:fill markers stroke"
       d="m 314.55367,85.975941 v -2.826332 h 2.92665 l 2.85594,2.855949 v 2.92548 h -2.00306 -1.30484 z"
       id="path57" /><path
       style="fill:none;stroke:#ffffff;stroke-width:1;stroke-linecap:round;stroke-linejoin:round;stroke-dasharray:none;paint-order:fill markers stroke"
       d="m 322.11273,85.975941 v -2.826332 h 2.92665 l 2.85594,2.855949 v 2.92548 h -2.00306 -1.30484 z"
       id="path58" /><path
       style="fill:none;stroke:#ffffff;stroke-width:1;stroke-linecap:round;stroke-linejoin:round;stroke-dasharray:none;paint-order:fill markers stroke"
       d="m 329.67178,85.975941 v -2.826332 h 2.92665 l 2.85594,2.855949 v 2.92548 h -2.00306 -1.30484 z"
       id="path59" /><path
       style="fill:none;stroke:#ffffff;stroke-width:1;stroke-linecap:round;stroke-linejoin:round;stroke-dasharray:none;paint-order:fill markers stroke"
       d="m 337.15443,85.975941 v -2.826332 h 2.92665 l 2.85594,2.855949 v 2.92548 h -2.00306 -1.30484 z"
       id="path60" /><path
       style="fill:none;stroke:#ffffff;stroke-width:1;stroke-linecap:round;stroke-linejoin:round;stroke-dasharray:none;paint-order:fill markers stroke"
       d="m 344.7899,85.975941 v -2.826332 h 2.92665 l 2.85594,2.855949 v 2.92548 h -2.00306 -1.30484 z"
       id="path61" /><path
       style="fill:none;stroke:#ffffff;stroke-width:1;stroke-linecap:round;stroke-linejoin:round;stroke-dasharray:none;paint-order:fill markers stroke"
       d="m 352.34895,85.975941 v -2.826332 h 2.92665 l 2.85594,2.855949 v 2.92548 h -2.00306 -1.30484 z"
       id="path62" /><path
       style="fill:none;stroke:#ffffff;stroke-width:1;stroke-linecap:round;stroke-linejoin:round;stroke-dasharray:none;paint-order:fill markers stroke"
       d="m 359.55513,85.975941 v -2.826332 h 2.92665 l 2.85594,2.855949 v 2.92548 h -2.00306 -1.30484 z"
       id="path63" /><path
       style="fill:none;stroke:#ffffff;stroke-width:1;stroke-linecap:round;stroke-linejoin:round;stroke-dasharray:none;paint-order:fill markers stroke"
       d="m 366.61418,85.975941 v -2.826332 h 2.92665 l 2.85594,2.855949 v 2.92548 h -2.00306 -1.30484 z"
       id="path64" /><path
       style="fill:none;stroke:#ffffff;stroke-width:1;stroke-linecap:butt;stroke-linejoin:miter;stroke-dasharray:none;paint-order:fill markers stroke"
       d="M 351.49607,75.590553 H 291.02363"
       id="path65" /><path
       style="fill:none;stroke:#ffffff;stroke-width:1;stroke-linecap:round;stroke-linejoin:round;stroke-dasharray:none;paint-order:fill markers stroke"
       d="M 207.87401,60.472443 V 64.25197"
       id="path66" /><path
       style="fill:none;stroke:#ffffff;stroke-width:1;stroke-linecap:round;stroke-linejoin:round;stroke-dasharray:none;paint-order:fill markers stroke"
       d="M 211.65354,60.472443 V 64.25197"
       id="path67" /><path
       style="fill:none;stroke:#ffffff;stroke-width:1;stroke-linecap:round;stroke-linejoin:round;stroke-dasharray:none;paint-order:fill markers stroke"
       d="M 215.43307,60.472443 V 64.25197"
       id="path68" /><path
       style="fill:none;stroke:#ffffff;stroke-width:1;stroke-linecap:round;stroke-linejoin:round;stroke-dasharray:none;paint-order:fill markers stroke"
       d="M 219.2126,60.472443 V 64.25197"
       id="path69" /><path
       style="fill:none;stroke:#ffffff;stroke-width:1;stroke-linecap:round;stroke-linejoin:round;stroke-dasharray:none;paint-order:fill markers stroke"
       d="M 192.7559,60.472443 V 64.25197"
       id="path70" /><path
       style="fill:none;stroke:#ffffff;stroke-width:1;stroke-linecap:round;stroke-linejoin:round;stroke-dasharray:none;paint-order:fill markers stroke"
       d="M 196.53543,60.472443 V 64.25197"
       id="path71" /><path
       style="fill:none;stroke:#ffffff;stroke-width:1;stroke-linecap:round;stroke-linejoin:round;stroke-dasharray:none;paint-order:fill markers stroke"
       d="M 200.31496,60.472443 V 64.25197"
       id="path72" /><path
       style="fill:none;stroke:#ffffff;stroke-width:1;stroke-linecap:round;stroke-linejoin:round;stroke-dasharray:none;paint-order:fill markers stroke"
       d="M 204.09449,60.472443 V 64.25197"
       id="path73" /><path
       style="fill:none;stroke:#ffffff;stroke-width:1;stroke-linecap:round;stroke-linejoin:round;stroke-dasharray:none;paint-order:fill markers stroke"
       d="M 177.63779,60.472443 V 64.25197"
       id="path74" /><path
       style="fill:none;stroke:#ffffff;stroke-width:1;stroke-linecap:round;stroke-linejoin:round;stroke-dasharray:none;paint-order:fill markers stroke"
       d="M 181.41732,60.472443 V 64.25197"
       id="path75" /><path
       style="fill:none;stroke:#ffffff;stroke-width:1;stroke-linecap:round;stroke-linejoin:round;stroke-dasharray:none;paint-order:fill markers stroke"
       d="M 185.19685,60.472443 V 64.25197"
       id="path76" /><path
       style="fill:none;stroke:#ffffff;stroke-width:1;stroke-linecap:round;stroke-linejoin:round;stroke-dasharray:none;paint-order:fill markers stroke"
       d="M 188.97638,60.472443 V 64.25197"
       id="path77" /><path
       style="fill:none;stroke:#ffffff;stroke-width:1;stroke-linecap:round;stroke-linejoin:round;stroke-dasharray:none;paint-order:fill markers stroke"
       d="M 166.79921,60.472443 V 64.25197"
       id="path79" /><path
       style="fill:none;stroke:#ffffff;stroke-width:1;stroke-linecap:round;stroke-linejoin:round;stroke-dasharray:none;paint-order:fill markers stroke"
       d="M 170.57874,60.472443 V 64.25197"
       id="path80" /><path
       style="fill:none;stroke:#ffffff;stroke-width:1;stroke-linecap:round;stroke-linejoin:round;stroke-dasharray:none;paint-order:fill markers stroke"
       d="M 174.35827,60.472443 V 64.25197"
       id="path81" /><path
       style="fill:none;stroke:#ffffff;stroke-width:1;stroke-linecap:round;stroke-linejoin:round;stroke-dasharray:none;paint-order:fill markers stroke"
       d="M 283.46457,60.472443 V 64.25197"
       id="path82" /><path
       style="fill:none;stroke:#ffffff;stroke-width:1;stroke-linecap:square;stroke-linejoin:round;stroke-dasharray:none;paint-order:fill markers stroke"
       d="m 198.30439,141.27512 h 30.87208 v 5.62645 h -30.94161 z"
       id="path86" /><path
       style="fill:none;stroke:#ffffff;stroke-width:1;stroke-linecap:square;stroke-linejoin:round;stroke-dasharray:none;paint-order:fill markers stroke"
       d="m 198.30439,148.83418 h 30.87208 v 5.62645 h -30.94161 z"
       id="path87" /><path
       style="fill:none;stroke:#ffffff;stroke-width:1;stroke-linecap:square;stroke-linejoin:round;stroke-dasharray:none;paint-order:fill markers stroke"
       d="m 198.30439,156.89323 h 30.87208 v 5.62645 h -30.94161 z"
       id="path88" /><path
       style="fill:none;stroke:#ffffff;stroke-width:1;stroke-linecap:square;stroke-linejoin:bevel;stroke-dasharray:none;paint-order:fill markers stroke"
       id="path105"
       d="m 69.369057,81.081047 a 3.7795258,3.7795258 0 0 1 -3.532333,3.771434 3.7795258,3.7795258 0 0 1 -3.994384,-3.278107 3.7795258,3.7795258 0 0 1 3.009842,-4.20023 3.7795258,3.7795258 0 0 1 4.38809,2.72869" /><path
       style="fill:none;stroke:#ffffff;stroke-width:1;stroke-linecap:square;stroke-linejoin:bevel;stroke-dasharray:none;paint-order:fill markers stroke"
       id="path106"
       d="m 56.692909,81.081047 a 3.7795258,3.7795258 0 0 1 -3.532333,3.771434 3.7795258,3.7795258 0 0 1 -3.994384,-3.278107 3.7795258,3.7795258 0 0 1 3.009843,-4.20023 3.7795258,3.7795258 0 0 1 4.38809,2.72869" /></g></svg>
