<?xml version="1.0" encoding="UTF-8" standalone="no"?>
<!-- Created with Inkscape (http://www.inkscape.org/) -->

<svg
   width="500"
   height="200"
   viewBox="0 0 500 200"
   version="1.1"
   id="svg1"
   xml:space="preserve"
   xmlns:xlink="http://www.w3.org/1999/xlink"
   xmlns="http://www.w3.org/2000/svg"
   xmlns:svg="http://www.w3.org/2000/svg"><defs
     id="defs1" /><g id="layer1">
     <path
       style="fill:none;stroke:#ffffff;stroke-width:1;stroke-linecap:square;stroke-linejoin:bevel;stroke-dasharray:none;paint-order:fill markers stroke"
       id="path6"
       d="m 135.25594,82.34256 a 2.9724798,2.9724798 0 0 1 -2.77807,2.966115 2.9724798,2.9724798 0 0 1 -3.14146,-2.578129 2.9724798,2.9724798 0 0 1 2.36715,-3.303351 2.9724798,2.9724798 0 0 1 3.4511,2.14603" /><path
       style="fill:none;stroke:#ffffff;stroke-width:1;stroke-linecap:square;stroke-linejoin:bevel;stroke-dasharray:none;paint-order:fill markers stroke"
       id="path6-7-3"
       d="m 305.57378,84.952812 a 1.3033924,1.3033924 0 0 1 -1.21815,1.300602 1.3033924,1.3033924 0 0 1 -1.37749,-1.130475 1.3033924,1.3033924 0 0 1 1.03797,-1.448475 1.3033924,1.3033924 0 0 1 1.51326,0.941005" /><path
       style="fill:none;stroke:#ffffff;stroke-width:1;stroke-linecap:square;stroke-linejoin:bevel;stroke-dasharray:none;paint-order:fill markers stroke"
       d="m 105.82677,74.44328 4.14314,-2.392042 h 211.28994"
       id="path7" /><path
       style="fill:none;stroke:#ffffff;stroke-width:1;stroke-linecap:square;stroke-linejoin:bevel;stroke-dasharray:none;paint-order:fill markers stroke"
       id="path18-4"
       d="m 206.024,115.23586 a 1.9295044,1.9295044 0 0 1 -1.80331,1.92538 1.9295044,1.9295044 0 0 1 -2.03919,-1.67353 1.9295044,1.9295044 0 0 1 1.53657,-2.14428 1.9295044,1.9295044 0 0 1 2.24019,1.39304" /><path
       style="fill:none;stroke:#ffffff;stroke-width:1;stroke-linecap:round;stroke-linejoin:round;stroke-dasharray:none;paint-order:fill markers stroke"
       d="m 128.50394,71.811026 c 0,-3.779528 3.77953,-7.507858 7.55906,-7.559056 h 154.96063 c 10.75486,-0.07984 8.53973,4.93042 13.50873,7.799268"
       id="path20" /><path
       style="fill:none;stroke:#ffffff;stroke-width:1;stroke-linecap:round;stroke-linejoin:round;stroke-dasharray:none;paint-order:fill markers stroke"
       d="M 162.51969,64.25197 V 60.472443 H 289.10086 V 64.25197"
       id="path29" /><path
       style="fill:none;stroke:#ffffff;stroke-width:1;stroke-linecap:round;stroke-linejoin:round;stroke-dasharray:none;paint-order:fill markers stroke"
       d="M 222.99213,60.472443 V 64.25197"
       id="path30" /><path
       style="fill:none;stroke:#ffffff;stroke-width:1;stroke-linecap:round;stroke-linejoin:round;stroke-dasharray:none;paint-order:fill markers stroke"
       d="M 226.77166,60.472443 V 64.25197"
       id="path31" /><path
       style="fill:none;stroke:#ffffff;stroke-width:1;stroke-linecap:round;stroke-linejoin:round;stroke-dasharray:none;paint-order:fill markers stroke"
       d="M 230.55119,60.472443 V 64.25197"
       id="path32" /><path
       style="fill:none;stroke:#ffffff;stroke-width:1;stroke-linecap:round;stroke-linejoin:round;stroke-dasharray:none;paint-order:fill markers stroke"
       d="M 234.33072,60.472443 V 64.25197"
       id="path33" /><path
       style="fill:none;stroke:#ffffff;stroke-width:1;stroke-linecap:round;stroke-linejoin:round;stroke-dasharray:none;paint-order:fill markers stroke"
       d="M 238.11024,60.472443 V 64.25197"
       id="path34" /><path
       style="fill:none;stroke:#ffffff;stroke-width:1;stroke-linecap:round;stroke-linejoin:round;stroke-dasharray:none;paint-order:fill markers stroke"
       d="M 241.88977,60.472443 V 64.25197"
       id="path35" /><path
       style="fill:none;stroke:#ffffff;stroke-width:1;stroke-linecap:round;stroke-linejoin:round;stroke-dasharray:none;paint-order:fill markers stroke"
       d="M 245.6693,60.472443 V 64.25197"
       id="path36" /><path
       style="fill:none;stroke:#ffffff;stroke-width:1;stroke-linecap:round;stroke-linejoin:round;stroke-dasharray:none;paint-order:fill markers stroke"
       d="M 249.44883,60.472443 V 64.25197"
       id="path37" /><path
       style="fill:none;stroke:#ffffff;stroke-width:1;stroke-linecap:round;stroke-linejoin:round;stroke-dasharray:none;paint-order:fill markers stroke"
       d="M 253.22835,60.472443 V 64.25197"
       id="path38" /><path
       style="fill:none;stroke:#ffffff;stroke-width:1;stroke-linecap:round;stroke-linejoin:round;stroke-dasharray:none;paint-order:fill markers stroke"
       d="M 257.00788,60.472443 V 64.25197"
       id="path39" /><path
       style="fill:none;stroke:#ffffff;stroke-width:1;stroke-linecap:round;stroke-linejoin:round;stroke-dasharray:none;paint-order:fill markers stroke"
       d="M 260.78741,60.472443 V 64.25197"
       id="path40" /><path
       style="fill:none;stroke:#ffffff;stroke-width:1;stroke-linecap:round;stroke-linejoin:round;stroke-dasharray:none;paint-order:fill markers stroke"
       d="M 264.56694,60.472443 V 64.25197"
       id="path41" /><path
       style="fill:none;stroke:#ffffff;stroke-width:1;stroke-linecap:round;stroke-linejoin:round;stroke-dasharray:none;paint-order:fill markers stroke"
       d="M 268.34646,60.472443 V 64.25197"
       id="path42" /><path
       style="fill:none;stroke:#ffffff;stroke-width:1;stroke-linecap:round;stroke-linejoin:round;stroke-dasharray:none;paint-order:fill markers stroke"
       d="M 272.12599,60.472443 V 64.25197"
       id="path43" /><path
       style="fill:none;stroke:#ffffff;stroke-width:1;stroke-linecap:round;stroke-linejoin:round;stroke-dasharray:none;paint-order:fill markers stroke"
       d="M 275.90552,60.472443 V 64.25197"
       id="path44" /><path
       style="fill:none;stroke:#ffffff;stroke-width:1;stroke-linecap:round;stroke-linejoin:round;stroke-dasharray:none;paint-order:fill markers stroke"
       d="M 279.68505,60.472443 V 64.25197"
       id="path45" /><path
       style="fill:none;stroke:#ffffff;stroke-width:1;stroke-linecap:round;stroke-linejoin:round;stroke-dasharray:none;paint-order:fill markers stroke"
       d="m 369.94884,77.887944 h 41.5748 c 3.77953,0 3.77953,10.131324 0,10.131324 h -41.5748"
       id="path46" /><path
       style="fill:none;stroke:#ffffff;stroke-width:1;stroke-linecap:round;stroke-linejoin:round;stroke-dasharray:none;paint-order:fill markers stroke"
       d="m 411.52364,77.887944 c 0,-0.815482 0,-1.207259 0.73749,-1.207259 h 3.04204 c 3.77953,0 3.77953,11.338583 0,11.338583 h -3.77953"
       id="path47" /><path
       style="fill:none;stroke:#ffffff;stroke-width:1;stroke-linecap:round;stroke-linejoin:round;stroke-dasharray:none;paint-order:fill markers stroke"
       d="m 419.52757,77.887944 c 0,-0.815482 0,-1.207259 0.73749,-1.207259 h 3.04204 c 3.77953,0 3.77953,11.338583 0,11.338583 h -3.77953"
       id="path48" /><path
       style="fill:none;stroke:#ffffff;stroke-width:1;stroke-linecap:round;stroke-linejoin:round;stroke-dasharray:none;paint-order:fill markers stroke"
       d="m 417.13472,77.887944 h 2.39285 c 3.33465,0 3.33465,10.131324 0,10.131324 h -4.2244"
       id="path49" /><path
       style="fill:none;stroke:#ffffff;stroke-width:1;stroke-linecap:round;stroke-linejoin:round;stroke-dasharray:none;paint-order:fill markers stroke"
       d="m 425.13865,77.887944 h 18.81948 c 4.47579,0 4.63703,10.131324 0,10.131324 h -21.09591"
       id="path50" /><path
       style="fill:none;stroke:#ffffff;stroke-width:1;stroke-linecap:butt;stroke-linejoin:miter;stroke-dasharray:none;paint-order:fill markers stroke"
       d="M 351.49607,75.590553 H 291.02363"
       id="path65" /><path
       style="fill:none;stroke:#ffffff;stroke-width:1;stroke-linecap:round;stroke-linejoin:round;stroke-dasharray:none;paint-order:fill markers stroke"
       d="M 207.87401,60.472443 V 64.25197"
       id="path66" /><path
       style="fill:none;stroke:#ffffff;stroke-width:1;stroke-linecap:round;stroke-linejoin:round;stroke-dasharray:none;paint-order:fill markers stroke"
       d="M 211.65354,60.472443 V 64.25197"
       id="path67" /><path
       style="fill:none;stroke:#ffffff;stroke-width:1;stroke-linecap:round;stroke-linejoin:round;stroke-dasharray:none;paint-order:fill markers stroke"
       d="M 215.43307,60.472443 V 64.25197"
       id="path68" /><path
       style="fill:none;stroke:#ffffff;stroke-width:1;stroke-linecap:round;stroke-linejoin:round;stroke-dasharray:none;paint-order:fill markers stroke"
       d="M 219.2126,60.472443 V 64.25197"
       id="path69" /><path
       style="fill:none;stroke:#ffffff;stroke-width:1;stroke-linecap:round;stroke-linejoin:round;stroke-dasharray:none;paint-order:fill markers stroke"
       d="M 192.7559,60.472443 V 64.25197"
       id="path70" /><path
       style="fill:none;stroke:#ffffff;stroke-width:1;stroke-linecap:round;stroke-linejoin:round;stroke-dasharray:none;paint-order:fill markers stroke"
       d="M 196.53543,60.472443 V 64.25197"
       id="path71" /><path
       style="fill:none;stroke:#ffffff;stroke-width:1;stroke-linecap:round;stroke-linejoin:round;stroke-dasharray:none;paint-order:fill markers stroke"
       d="M 200.31496,60.472443 V 64.25197"
       id="path72" /><path
       style="fill:none;stroke:#ffffff;stroke-width:1;stroke-linecap:round;stroke-linejoin:round;stroke-dasharray:none;paint-order:fill markers stroke"
       d="M 204.09449,60.472443 V 64.25197"
       id="path73" /><path
       style="fill:none;stroke:#ffffff;stroke-width:1;stroke-linecap:round;stroke-linejoin:round;stroke-dasharray:none;paint-order:fill markers stroke"
       d="M 177.63779,60.472443 V 64.25197"
       id="path74" /><path
       style="fill:none;stroke:#ffffff;stroke-width:1;stroke-linecap:round;stroke-linejoin:round;stroke-dasharray:none;paint-order:fill markers stroke"
       d="M 181.41732,60.472443 V 64.25197"
       id="path75" /><path
       style="fill:none;stroke:#ffffff;stroke-width:1;stroke-linecap:round;stroke-linejoin:round;stroke-dasharray:none;paint-order:fill markers stroke"
       d="M 185.19685,60.472443 V 64.25197"
       id="path76" /><path
       style="fill:none;stroke:#ffffff;stroke-width:1;stroke-linecap:round;stroke-linejoin:round;stroke-dasharray:none;paint-order:fill markers stroke"
       d="M 188.97638,60.472443 V 64.25197"
       id="path77" /><path
       style="fill:none;stroke:#ffffff;stroke-width:1;stroke-linecap:round;stroke-linejoin:round;stroke-dasharray:none;paint-order:fill markers stroke"
       d="M 166.29922,60.472443 V 64.25197"
       id="path79" /><path
       style="fill:none;stroke:#ffffff;stroke-width:1;stroke-linecap:round;stroke-linejoin:round;stroke-dasharray:none;paint-order:fill markers stroke"
       d="M 170.07874,60.472443 V 64.25197"
       id="path80" /><path
       style="fill:none;stroke:#ffffff;stroke-width:1;stroke-linecap:round;stroke-linejoin:round;stroke-dasharray:none;paint-order:fill markers stroke"
       d="M 173.85827,60.472443 V 64.25197"
       id="path81" /><path
       style="fill:none;stroke:#ffffff;stroke-width:1;stroke-linecap:round;stroke-linejoin:round;stroke-dasharray:none;paint-order:fill markers stroke"
       d="M 283.46457,60.472443 V 64.25197"
       id="path82" /><path
       style="fill:none;stroke:#ffffff;stroke-linecap:round;stroke-linejoin:round;paint-order:fill markers stroke"
       d="m 192.75591,102.04725 c 1.25984,13.85827 4.93708,19.39764 11.83858,19.39764 h 37.79528 c 8.83923,0.44342 8.64639,-4.45048 10.62602,-11.83859 0.45545,-1.69975 0.21256,-7.55905 19.1102,-7.55905 h 11.33858 c 10.04109,0.31333 12.50009,1.93353 17.22598,5.06361 5.72617,5.28559 20.5693,-5.06361 39.46694,-5.06361 7.55906,0 1.76684,-10.248454 17.75084,-10.248454"
       id="path21" /><path
       style="fill:none;stroke:#ffffff;stroke-linecap:round;stroke-linejoin:round;paint-order:fill markers stroke"
       d="M 441.75986,91.798796 H 357.90833"
       id="path27" /><path
       style="fill:none;stroke:#ffffff;stroke-linecap:round;stroke-linejoin:round;paint-order:fill markers stroke"
       d="m 441.75986,88.019268 c 1.16684,2.021027 1.02023,2.012445 0,3.779528"
       id="path51" /><path
       style="fill:none;stroke:#ffffff;stroke-linecap:round;stroke-linejoin:round;paint-order:fill markers stroke"
       d="m 392.626,84.239741 h 11.33859 c 1.04905,-1.011633 1.27983,-2.234095 0,-3.779528 H 392.626 c -1.08933,1.28302 -1.08933,2.542863 0,3.779528 z"
       id="path52" /><circle
       style="fill:none;stroke:#ffffff;stroke-linecap:round;stroke-linejoin:round;paint-order:fill markers stroke"
       id="path53"
       cx="393.92908"
       cy="82.40744"
       r="0.10429754" /><circle
       style="fill:none;stroke:#ffffff;stroke-linecap:round;stroke-linejoin:round;paint-order:fill markers stroke"
       id="circle53"
       cx="396.40552"
       cy="82.40744"
       r="0.10429754" /><circle
       style="fill:none;stroke:#ffffff;stroke-linecap:round;stroke-linejoin:round;paint-order:fill markers stroke"
       id="circle54"
       cx="400.08075"
       cy="82.40744"
       r="0.10429754" /><circle
       style="fill:none;stroke:#ffffff;stroke-linecap:round;stroke-linejoin:round;paint-order:fill markers stroke"
       id="circle55"
       cx="402.86389"
       cy="82.40744"
       r="0.10429754" /><path
       style="fill:none;stroke:#ffffff;stroke-linecap:round;stroke-linejoin:round;paint-order:fill markers stroke"
       d="m 393.92908,82.303149 c 2.47645,-5.622464 -5.0826,-9.401991 -7.10223,-4.415205"
       id="path55" /><path
       style="fill:none;stroke:#ffffff;stroke-linecap:round;stroke-linejoin:round;paint-order:fill markers stroke"
       d="m 400.08046,82.303149 c 2.47645,-5.622464 -5.0826,-9.401991 -7.10223,-4.415205"
       id="path56" /><path
       style="fill:none;stroke:#ffffff;stroke-linecap:round;stroke-linejoin:round;paint-order:fill markers stroke"
       d="m 402.8636,82.303149 c 2.47645,-5.622464 -5.0826,-9.401991 -7.10223,-4.415205"
       id="path57" /><path
       style="fill:none;stroke:#ffffff;stroke-linecap:round;stroke-linejoin:round;paint-order:fill markers stroke"
       d="M 381.28742,75.626293 H 354.83073"
       id="path58" /><path
       style="fill:none;stroke:#ffffff;stroke-linecap:round;stroke-linejoin:round;paint-order:fill markers stroke"
       d="m 381.28742,75.626293 c 2.05803,0 1.98165,1.240904 1.98165,2.261651"
       id="path59" /><path
       style="fill:none;stroke:#ffffff;stroke-linecap:round;stroke-linejoin:round;paint-order:fill markers stroke"
       d="m 200.31497,124.72441 v 11.33859 7.55905 c 1.25984,3.77953 3.77952,3.77953 11.33858,3.77953 h 22.67717 c 3.87224,0.2235 6.76778,-1.14058 11.33858,-3.77953 3.01181,-1.73887 3.77953,-2.64624 3.77953,-7.55905 0,-4.87109 0,-11.33859 -3.77953,-11.33859 z"
       id="path60" /><path
       style="fill:none;stroke:#ffffff;stroke-linecap:round;stroke-linejoin:round;paint-order:fill markers stroke"
       d="m 298.58269,79.370081 h 37.79527 c 7.55906,0 7.55906,11.338583 0,11.338583 h -37.79527 c -3.77953,0 -3.77953,-11.338583 0,-11.338583 z"
       id="path61" /><path
       style="fill:none;stroke:#ffffff;stroke-linecap:round;stroke-linejoin:round;paint-order:fill markers stroke"
       d="m 302.36221,83.149609 c -2.00954,0 -2.10787,3.779527 0,3.779527 h 34.01575 c 2.18162,0 2.10787,-3.779527 0,-3.779527 z"
       id="path62" /><path
       style="fill:none;stroke:#ffffff;stroke-width:1;stroke-linecap:square;stroke-linejoin:bevel;stroke-dasharray:none;paint-order:fill markers stroke"
       id="path63"
       d="m 311.06679,84.952812 a 1.1643291,1.1643291 0 0 1 -1.08817,1.161836 1.1643291,1.1643291 0 0 1 -1.23052,-1.00986 1.1643291,1.1643291 0 0 1 0.92722,-1.293933 1.1643291,1.1643291 0 0 1 1.3518,0.840607" /><path
       style="fill:none;stroke:#ffffff;stroke-width:1;stroke-linecap:square;stroke-linejoin:bevel;stroke-dasharray:none;paint-order:fill markers stroke"
       id="path64"
       d="m 316.91237,84.952812 a 1.3033924,1.3033924 0 0 1 -1.21815,1.300602 1.3033924,1.3033924 0 0 1 -1.37748,-1.130475 1.3033924,1.3033924 0 0 1 1.03796,-1.448475 1.3033924,1.3033924 0 0 1 1.51326,0.941005" /><path
       style="fill:none;stroke:#ffffff;stroke-width:1;stroke-linecap:square;stroke-linejoin:bevel;stroke-dasharray:none;paint-order:fill markers stroke"
       id="path78"
       d="m 322.56325,84.952812 a 1.3033924,1.3033924 0 0 1 -1.21815,1.300602 1.3033924,1.3033924 0 0 1 -1.37748,-1.130475 1.3033924,1.3033924 0 0 1 1.03796,-1.448475 1.3033924,1.3033924 0 0 1 1.51326,0.941005" /><path
       style="fill:none;stroke:#ffffff;stroke-width:1;stroke-linecap:square;stroke-linejoin:bevel;stroke-dasharray:none;paint-order:fill markers stroke"
       id="path83"
       d="m 328.25093,84.952812 a 1.3033924,1.3033924 0 0 1 -1.21814,1.300602 1.3033924,1.3033924 0 0 1 -1.37749,-1.130475 1.3033924,1.3033924 0 0 1 1.03796,-1.448475 1.3033924,1.3033924 0 0 1 1.51326,0.941005" /><path
       style="fill:none;stroke:#ffffff;stroke-width:1;stroke-linecap:square;stroke-linejoin:bevel;stroke-dasharray:none;paint-order:fill markers stroke"
       id="path84"
       d="m 333.90184,84.952812 a 1.3033924,1.3033924 0 0 1 -1.21814,1.300602 1.3033924,1.3033924 0 0 1 -1.37749,-1.130475 1.3033924,1.3033924 0 0 1 1.03796,-1.448475 1.3033924,1.3033924 0 0 1 1.51326,0.941005" /><path
       style="fill:none;stroke:#ffffff;stroke-width:1;stroke-linecap:round;stroke-linejoin:round;stroke-dasharray:none;paint-order:fill markers stroke"
       d="m 304.23593,84.932966 c 1.68752,-1.893841 -0.44685,-7.250241 11.33367,0"
       id="path85" /><path
       style="fill:none;stroke:#ffffff;stroke-width:1;stroke-linecap:square;stroke-linejoin:bevel;stroke-dasharray:none;paint-order:fill markers stroke"
       id="path86"
       d="m 308.07126,103.89727 a 1.9295044,1.9295044 0 0 1 -1.80331,1.92537 1.9295044,1.9295044 0 0 1 -2.03919,-1.67352 1.9295044,1.9295044 0 0 1 1.53657,-2.14428 1.9295044,1.9295044 0 0 1 2.24018,1.39304" /><path
       style="fill:none;stroke:#ffffff;stroke-width:1;stroke-linecap:round;stroke-linejoin:round;stroke-dasharray:none;paint-order:fill markers stroke"
       d="m 306.14174,103.98465 c 1.14415,-4.270012 2.85013,-6.290937 8.00246,-8.418717 4.02219,-1.077741 7.6694,0.923147 11.92469,-3.332139 1.50652,-2.364078 1.80782,-4.77451 0.90391,-7.231296"
       id="path87" /><path
       style="fill:none;stroke:#ffffff;stroke-width:1;stroke-linecap:round;stroke-linejoin:round;stroke-dasharray:none;paint-order:fill markers stroke"
       d="m 368.05907,75.626293 c 0.81534,0.591643 1.44526,1.345527 1.88977,2.261651 v 10.131324 c 0.0333,1.561147 -0.30431,2.820989 -1.01272,3.779528"
       id="path88" /><path
       style="fill:none;stroke:#ffffff;stroke-width:1;stroke-linecap:round;stroke-linejoin:round;stroke-dasharray:none;paint-order:fill markers stroke"
       d="m 359.05513,75.626293 c -0.77013,0.590376 -1.21248,1.34464 -1.32706,2.262791 v 10.167819 c 0.0392,1.771739 0.37343,3.019036 1.00264,3.741893"
       id="path89" /><path
       style="fill:none;stroke:#ffffff;stroke-width:1;stroke-linecap:round;stroke-linejoin:round;stroke-dasharray:none;paint-order:fill markers stroke"
       d="m 192.75591,102.04725 c -2.50972,4.34696 -13.06605,12.90115 -18.89764,11.33858 l -7.55905,0.12912 c -1.58432,-0.31018 -2.84417,2.61286 -3.77953,1.4683"
       id="path90" /><path
       style="fill:none;stroke:#ffffff;stroke-width:1;stroke-linecap:round;stroke-linejoin:round;stroke-dasharray:none;paint-order:fill markers stroke"
       d="m 159.59475,102.04725 c 1.80676,3.82233 4.81699,4.66763 6.70447,7.55905 -0.13809,-3.77831 -2.17515,-7.64371 0,-11.338581"
       id="path91" /><path
       style="fill:none;stroke:#ffffff;stroke-width:1;stroke-linecap:round;stroke-linejoin:round;stroke-dasharray:none;paint-order:fill markers stroke"
       d="m 173.85827,98.267719 c -0.14748,2.227761 4.88019,5.771211 7.55906,4.613911 -1.58432,-0.70359 -2.84417,-2.24156 -3.77953,-4.613911"
       id="path92" /><path
       style="fill:none;stroke:#ffffff;stroke-width:1;stroke-linecap:round;stroke-linejoin:round;stroke-dasharray:none;paint-order:fill markers stroke"
       d="m 136.063,105.82677 c 2.63487,5.08025 5.43334,10.16535 3.77952,15.11812 -1.13719,5.06663 -3.77952,9.63296 -3.77952,15.11811 v 8.79943 l 26.45669,0.76485 c -3.77953,-1.70475 -5.02095,-4.9671 -3.77953,-9.56428 l 2.04124,-7.55906 c -1.01272,-3.77953 -3.30108,-3.55602 -2.04124,-7.55905 l 3.77953,-5.96164 -3.77953,-16.715531 h 34.01575 v 3.779531"
       id="path93" /><path
       style="fill:none;stroke:#ffffff;stroke-width:1;stroke-linecap:round;stroke-linejoin:round;stroke-dasharray:none;paint-order:fill markers stroke"
       d="m 158.74016,98.267719 0.73078,-1.688194 h 33.28497 v 1.688194"
       id="path94" /><path
       style="fill:none;stroke:#ffffff;stroke-width:1;stroke-linecap:round;stroke-linejoin:round;stroke-dasharray:none;paint-order:fill markers stroke"
       d="m 215.43308,117.16536 h 15.11811 c 0.5099,-1.3062 0.5099,-2.56604 0,-3.77953 h -15.11811 c -0.74167,1.25984 -0.74167,2.51969 0,3.77953 z"
       id="path95" /><path
       style="fill:none;stroke:#ffffff;stroke-width:1;stroke-linecap:round;stroke-linejoin:round;stroke-dasharray:none;paint-order:fill markers stroke"
       d="M 291.02363,75.590553 H 151.18111"
       id="path96" /><path
       style="fill:none;stroke:#ffffff;stroke-width:1;stroke-linecap:round;stroke-linejoin:round;stroke-dasharray:none;paint-order:fill markers stroke"
       d="m 351.49607,75.590553 v 3.779528 h 3.77953 v -3.743788 z"
       id="path97" /><path
       style="fill:none;stroke:#ffffff;stroke-width:1;stroke-linecap:round;stroke-linejoin:round;stroke-dasharray:none;paint-order:fill markers stroke"
       d="m 360.97922,89.384394 h 5.65413"
       id="path98" /><path
       style="fill:none;stroke:#ffffff;stroke-width:1;stroke-linecap:round;stroke-linejoin:round;stroke-dasharray:none;paint-order:fill markers stroke"
       d="m 438.42521,77.887944 c 3.77953,0 3.77953,10.131324 0,10.131324"
       id="path99" /><path
       style="fill:none;stroke:#ffffff;stroke-width:1;stroke-linecap:round;stroke-linejoin:round;stroke-dasharray:none;paint-order:fill markers stroke"
       d="m 136.063,140.46271 22.46944,0.81745"
       id="path100" /><path
       style="fill:none;stroke:#ffffff;stroke-width:1;stroke-linecap:round;stroke-linejoin:round;stroke-dasharray:none;paint-order:fill markers stroke"
       d="m 204.09449,128.50394 h 37.79528 c 3.77953,1.01272 3.77953,1.06386 0,2.07658 h -37.79528 z"
       id="path101" /><path
       style="fill:none;stroke:#ffffff;stroke-width:1;stroke-linecap:round;stroke-linejoin:round;stroke-dasharray:none;paint-order:fill markers stroke"
       d="m 204.09449,132.28347 h 37.79528 c 3.77953,1.01272 3.77953,1.06386 0,2.07658 h -37.79528 z"
       id="path102" /><path
       style="fill:none;stroke:#ffffff;stroke-width:1;stroke-linecap:round;stroke-linejoin:round;stroke-dasharray:none;paint-order:fill markers stroke"
       d="m 204.09449,136.063 h 37.79528 c 3.77953,1.01272 3.77953,1.06386 0,2.07658 h -37.79528 z"
       id="path103" /><path
       style="fill:none;stroke:#ffffff;stroke-width:1;stroke-linecap:round;stroke-linejoin:round;stroke-dasharray:none;paint-order:fill markers stroke"
       d="m 204.09449,139.84252 h 37.79528 c 3.77953,1.01272 3.77953,1.06386 0,2.07658 h -37.79528 z"
       id="path104" /><path
       style="fill:none;stroke:#ffffff;stroke-width:1;stroke-linecap:round;stroke-linejoin:round;stroke-dasharray:none;paint-order:fill markers stroke"
       d="m 207.87402,145.39077 h 7.55906"
       id="path107" /><path
       style="fill:none;stroke:#ffffff;stroke-width:1;stroke-linecap:round;stroke-linejoin:round;stroke-dasharray:none;paint-order:fill markers stroke"
       d="m 204.09449,79.370081 h 68.0315 l 3.77953,7.559055 H 177.6378 l 3.77953,-7.559055 z"
       id="path108" /><path
       style="fill:none;stroke:#ffffff;stroke-width:1;stroke-linecap:round;stroke-linejoin:round;stroke-dasharray:none;paint-order:fill markers stroke"
       d="m 215.43307,90.708664 h 52.91339 l -3.77953,3.779528 h -52.91339 z"
       id="path109" /><path
       style="fill:none;stroke:#ffffff;stroke-width:1;stroke-linecap:round;stroke-linejoin:round;stroke-dasharray:none;paint-order:fill markers stroke"
       d="m 268.34646,94.488192 3.77953,-3.779528 h 7.55906 V 79.370081 l 3.77952,3.779528 v 11.338583 z"
       id="path110" /><path
       style="fill:none;stroke:#ffffff;stroke-width:1;stroke-linecap:round;stroke-linejoin:round;stroke-dasharray:none;paint-order:fill markers stroke"
       d="m 321.25985,72.051238 c 3.77953,0 11.33858,-0.240212 11.33858,3.539315"
       id="path112" /><path
       style="fill:none;stroke:#ffffff;stroke-width:1;stroke-linecap:round;stroke-linejoin:round;stroke-dasharray:none;paint-order:fill markers stroke"
       d="m 283.46457,98.267719 h -3.77952"
       id="path114" /><path
       style="fill:none;stroke:#ffffff;stroke-width:1;stroke-linecap:round;stroke-linejoin:round;stroke-dasharray:none;paint-order:fill markers stroke"
       d="m 105.82677,74.44328 c -32.086214,8.597476 -46.823043,4.926801 -60.472438,-7.395109 -1.648636,-1.488296 -6.984817,-2.312427 -9.199145,-1.263397 0,6.009754 2.135212,37.357056 1.64009,55.160116 0,6.46025 1.517876,4.92489 5.297404,4.92489 1.25825,-36.891715 35.95565,-27.602061 62.734089,-27.602061"
       id="path115" /><path
       style="fill:none;stroke:#ffffff;stroke-width:1;stroke-linecap:round;stroke-linejoin:round;stroke-dasharray:none;paint-order:fill markers stroke"
       d="m 136.063,105.82677 h -7.55906 l -3.77953,-5.45777 c -5.57236,-2.01814 -11.84597,-2.101281 -18.89764,-2.101281"
       id="path116" /><path
       style="fill:none;stroke:#ffffff;stroke-width:1;stroke-linecap:round;stroke-linejoin:round;stroke-dasharray:none;paint-order:fill markers stroke"
       d="m 109.96991,72.051238 c -3.47647,5.717515 -4.85752,13.1965 -4.14314,22.436954"
       id="path117" /><path
       style="fill:none;stroke:#ffffff;stroke-width:1;stroke-linecap:round;stroke-linejoin:round;stroke-dasharray:none;paint-order:fill markers stroke"
       d="M 105.82677,94.488192 H 128.7727 L 124.72441,100.369"
       id="path118" /><path
       style="fill:none;stroke:#ffffff;stroke-width:1;stroke-linecap:round;stroke-linejoin:round;stroke-dasharray:none;paint-order:fill markers stroke"
       d="m 127.59066,100.2647 2.57267,3.54612 4.90199,0.0695 -4.55773,-7.894206 z"
       id="path119" /><path
       style="fill:none;stroke:#ffffff;stroke-width:1;stroke-linecap:round;stroke-linejoin:round;stroke-dasharray:none;paint-order:fill markers stroke"
       d="m 164.69556,93.059148 h 7.55906 v -2.350484 l -7.55906,-0.04917 z"
       id="path120" /><path
       style="fill:none;stroke:#ffffff;stroke-width:1;stroke-linecap:round;stroke-linejoin:round;stroke-dasharray:none;paint-order:fill markers stroke"
       d="m 120.94489,72.051238 c -3.0309,6.671306 -5.39266,13.429537 -3.64516,22.436954"
       id="path121" /><path
       style="fill:none;stroke:#ffffff;stroke-width:1;stroke-linecap:round;stroke-linejoin:round;stroke-dasharray:none;paint-order:fill markers stroke"
       d="m 162.51969,60.472443 -3.77953,3.779527"
       id="path122" /><path
       style="fill:none;stroke:#ffffff;stroke-width:1;stroke-linecap:round;stroke-linejoin:round;stroke-dasharray:none;paint-order:fill markers stroke"
       d="m 40.371374,65.425799 2.187341,60.453721"
       id="path123" /></g></svg>
